<?xml version="1.0" encoding="utf-8"?>
<!-- Generator: Adobe Illustrator 27.5.0, SVG Export Plug-In . SVG Version: 6.00 Build 0)  -->
<svg version="1.1" id="Layer_1" xmlns="http://www.w3.org/2000/svg" xmlns:xlink="http://www.w3.org/1999/xlink" x="0px" y="0px"
	 viewBox="0 0 3500 2000" style="enable-background:new 0 0 3500 2000;" xml:space="preserve">
<rect style="fill:#FFFFFF;" width="3500" height="2000"/>
<path style="fill:#F4F7FD;" d="M408.201,1826.846c-90.638-23.373-149.249-120.918-147.41-214.511
	c3.964-201.377,200.288-314.47,352.774-402.995c35.238-20.457,72.148-43.118,90.429-79.532c0.011-0.022,0.022-0.045,0.042-0.083
	c53.796-107.356-46.432-260.106-57.622-371.539c-16.007-159.397,22.789-343.935,158.799-443.051
	c247.403-180.295,475.919,33.19,689.446,149.745c200.487,109.438,371.364,33.885,565.574-42.264
	c170.973-67.038,370.303-97.299,551.807-60.339c98.508,20.059,193.866,64.351,263.828,136.558
	c99.152,102.34,138.87,253.162,127.594,392.827c-9.428,116.776-76.255,216.232-100.518,328.966
	c-30.306,140.811,29.923,193.47,142.428,266.684c111.365,72.472,208.76,210.285,153.771,331.243L408.201,1826.846z"/>
<g>
	<g>
		<g>
			<path style="fill:#CCE6FF;" d="M1967.676,615.189c-93.531,0-181.464,36.423-247.601,102.559
				c-66.137,66.136-102.56,154.069-102.56,247.601c0,93.531,36.423,181.464,102.56,247.601
				c66.137,66.136,154.069,102.56,247.601,102.56s181.464-36.424,247.601-102.56c66.137-66.137,102.56-154.069,102.56-247.601
				c0-93.531-36.423-181.464-102.56-247.601C2149.14,651.612,2061.207,615.189,1967.676,615.189z M1967.676,1319.197
				c-47.769,0-94.108-9.355-137.734-27.808c-42.136-17.822-79.978-43.336-112.474-75.832s-58.01-70.338-75.832-112.475
				c-18.452-43.625-27.808-89.966-27.808-137.734c0-47.768,9.356-94.109,27.808-137.734c17.822-42.136,43.336-79.978,75.832-112.474
				c32.496-32.497,70.338-58.01,112.474-75.832c43.626-18.452,89.966-27.808,137.734-27.808s94.108,9.356,137.734,27.808
				c42.136,17.822,79.978,43.335,112.474,75.832c32.496,32.496,58.01,70.338,75.832,112.474
				c18.452,43.625,27.808,89.966,27.808,137.734c0,47.768-9.355,94.109-27.808,137.734c-17.822,42.137-43.336,79.979-75.832,112.475
				s-70.338,58.01-112.474,75.832C2061.784,1309.842,2015.444,1319.197,1967.676,1319.197z"/>
			<path style="fill:#CCE6FF;" d="M1633.814,631.487c-43.575,43.575-77.662,94.26-101.253,150.067
				c-24.436,57.806-37.037,119.835-37.037,183.795s12.601,125.989,37.037,183.795c23.591,55.807,57.678,106.492,101.253,150.067
				c43.575,43.575,94.26,77.662,150.068,101.253c57.806,24.436,119.835,37.037,183.795,37.037
				c63.96,0,125.989-12.601,183.795-37.037c55.807-23.591,106.492-57.678,150.067-101.253
				c43.575-43.575,77.662-94.26,101.253-150.067c24.436-57.806,37.037-119.835,37.037-183.795
				c0-63.96-12.601-125.989-37.037-183.795c-23.591-55.807-57.678-106.492-101.253-150.067
				c-43.575-43.575-94.26-77.662-150.067-101.253c-57.806-24.436-119.835-37.037-183.795-37.037
				c-63.96,0-125.989,12.6-183.795,37.037C1728.074,553.825,1677.389,587.912,1633.814,631.487z M1967.676,1441.189
				c-64.237,0-126.554-12.581-185.219-37.395c-56.663-23.966-107.551-58.276-151.251-101.976
				c-43.7-43.699-78.009-94.588-101.976-151.251c-24.814-58.665-37.395-120.982-37.395-185.219
				c0-64.237,12.581-126.554,37.395-185.219c23.966-56.663,58.276-107.551,101.976-151.251c43.7-43.7,94.588-78.009,151.251-101.976
				c58.666-24.814,120.982-37.395,185.219-37.395s126.554,12.581,185.219,37.395c56.662,23.966,107.55,58.276,151.25,101.976
				c43.7,43.7,78.009,94.588,101.976,151.251c24.813,58.665,37.394,120.982,37.394,185.219c0,64.237-12.581,126.554-37.394,185.219
				c-23.967,56.663-58.276,107.552-101.976,151.251c-43.7,43.7-94.588,78.01-151.25,101.976
				C2094.229,1428.608,2031.913,1441.189,1967.676,1441.189z"/>
			<path style="fill:#CCE6FF;" d="M1547.552,545.225c-54.672,54.672-97.534,118.308-127.364,188.85
				c-30.89,73.047-46.657,150.954-46.657,231.273c0,80.32,15.767,158.226,46.657,231.274
				c29.83,70.542,72.692,134.178,127.364,188.85c54.672,54.672,118.308,97.533,188.85,127.364
				c73.047,30.89,150.954,46.657,231.273,46.657s158.227-15.768,231.273-46.657c70.542-29.83,134.178-72.692,188.85-127.364
				c54.672-54.672,97.534-118.308,127.364-188.85c30.89-73.047,46.657-150.954,46.657-231.274
				c0-80.319-15.768-158.227-46.657-231.273c-29.83-70.542-72.692-134.178-127.364-188.85
				c-54.672-54.672-118.308-97.534-188.85-127.364c-73.047-30.889-150.954-46.657-231.273-46.657s-158.227,15.767-231.273,46.657
				C1665.86,447.691,1602.224,490.553,1547.552,545.225z M1967.676,1563.182c-80.706,0-158.999-15.807-232.704-46.981
				c-71.189-30.111-135.124-73.216-190.027-128.12c-54.903-54.903-98.009-118.838-128.12-190.027
				c-31.175-73.705-46.982-151.998-46.982-232.704c0-80.706,15.807-158.999,46.982-232.704
				c30.111-71.19,73.217-135.124,128.12-190.028c54.903-54.904,118.838-98.009,190.027-128.12
				c73.705-31.175,151.998-46.982,232.704-46.982s158.999,15.807,232.704,46.982c71.189,30.111,135.124,73.216,190.027,128.12
				c54.903,54.903,98.009,118.838,128.12,190.028c31.174,73.705,46.981,151.998,46.981,232.704
				c0,80.706-15.807,158.999-46.981,232.704c-30.111,71.19-73.217,135.124-128.12,190.027
				c-54.904,54.904-118.838,98.009-190.027,128.12C2126.675,1547.375,2048.382,1563.182,1967.676,1563.182z"/>
			<path style="fill:#CCE6FF;" d="M1967.676,249.212c-96.679,0-190.465,18.934-278.752,56.277
				c-85.277,36.069-161.864,87.705-227.633,153.475c-65.77,65.77-117.406,142.356-153.475,227.633
				c-37.343,88.288-56.277,182.073-56.277,278.752c0,96.679,18.934,190.464,56.277,278.752
				c36.069,85.276,87.705,161.863,153.475,227.633s142.356,117.405,227.633,153.475c88.287,37.343,182.073,56.277,278.752,56.277
				s190.465-18.935,278.752-56.277c85.277-36.069,161.864-87.705,227.633-153.475c65.77-65.77,117.406-142.356,153.475-227.633
				c37.343-88.288,56.277-182.073,56.277-278.752c0-96.679-18.935-190.464-56.277-278.752
				c-36.068-85.277-87.705-161.864-153.475-227.633c-65.769-65.77-142.355-117.406-227.633-153.475
				C2158.141,268.147,2064.354,249.212,1967.676,249.212z M1967.676,1685.174c-97.175,0-191.444-19.032-280.189-56.568
				c-85.716-36.255-162.697-88.156-228.804-154.264c-66.107-66.106-118.009-143.088-154.264-228.804
				c-37.536-88.745-56.568-183.014-56.568-280.189c0-97.175,19.032-191.444,56.568-280.189
				c36.255-85.716,88.157-162.697,154.264-228.804c66.107-66.107,143.088-118.009,228.804-154.264
				c88.745-37.536,183.014-56.568,280.189-56.568s191.444,19.032,280.189,56.568c85.716,36.255,162.696,88.157,228.804,154.264
				c66.106,66.107,118.008,143.088,154.264,228.804c37.535,88.745,56.567,183.014,56.567,280.189
				c0,97.175-19.032,191.444-56.567,280.189c-36.256,85.717-88.157,162.697-154.264,228.804
				c-66.107,66.107-143.088,118.009-228.804,154.264C2159.12,1666.142,2064.851,1685.174,1967.676,1685.174z"/>
		</g>
		<g>
			<g>
				<g>
					
						<ellipse transform="matrix(0.2298 -0.9732 0.9732 0.2298 58.7694 2127.8694)" style="fill:#80C0FF;" cx="1373.724" cy="1026.805" rx="25.78" ry="25.78"/>
				</g>
				<g>
					<circle style="fill:#80C0FF;" cx="2643.27" cy="1212.924" r="18.657"/>
				</g>
				<g>
					<circle style="fill:#80C0FF;" cx="1945.303" cy="248.359" r="32.516"/>
				</g>
				<g>
					
						<ellipse transform="matrix(0.7071 -0.7071 0.7071 0.7071 39.477 1897.8331)" style="fill:#80C0FF;" cx="2310.626" cy="901.264" rx="15.036" ry="15.036"/>
				</g>
			</g>
			<g>
				<circle style="fill:#80C0FF;" cx="1780.906" cy="531.815" r="18.093"/>
			</g>
		</g>
	</g>
	<g>
		<g>
			<g>
				<g>
					<path style="fill:#FFC0B1;" d="M1348.245,1406.153l-65.157-81.28l0,0c-8.349,6.597-11.046,18.081-6.507,27.705l17.678,37.481
						l-105.561-32.861c-8.693-2.259-17.278,4.008-17.774,12.977l-0.839,15.166c-1.65,29.82,20.208,55.768,49.875,59.207
						l74.203,8.601l32.279,3.504L1348.245,1406.153z"/>
					<path style="fill:#102A54;" d="M1299.187,1431.015c-0.681,0-1.35-0.328-1.759-0.936c-12.44-18.465-5.479-39.797-5.177-40.696
						c0.373-1.109,1.573-1.711,2.684-1.332c1.108,0.372,1.705,1.572,1.333,2.681l0,0c-0.067,0.201-6.574,20.284,4.674,36.98
						c0.654,0.971,0.397,2.287-0.574,2.94C1300.005,1430.897,1299.594,1431.015,1299.187,1431.015z"/>
				</g>
				<path style="fill:#FFC0B1;" d="M1682.932,1481.205l-48.656,69.517l-293.253-153.779l-29.204,56.061l259.895,203.838
					c21.965,17.227,49.634,25.505,77.451,23.171h0c30.569-2.565,58.697-17.72,77.654-41.838l79.299-100.888L1682.932,1481.205z"/>
			</g>
			<path style="fill:#102A54;" d="M1655.017,1613.455c-0.036,0-0.072-0.001-0.108-0.003c-1.168-0.059-2.068-1.054-2.01-2.223
				c1.843-36.666-19.897-58.785-20.117-59.005c-0.828-0.825-0.832-2.166-0.007-2.995c0.825-0.83,2.164-0.835,2.994-0.011
				c0.952,0.945,23.304,23.597,21.363,62.224C1657.074,1612.575,1656.138,1613.455,1655.017,1613.455z"/>
		</g>
		<polygon style="fill:#102A54;" points="1814.402,1220.309 1638.971,1486.219 1787.298,1561.229 		"/>
		<g>
			<path style="fill:#3C94F8;" d="M1895.472,1178.208h218.59c46.087,0,85.541,33.048,93.621,78.422l100.078,561.998h-533.153
				l21.848-545.292C1798.586,1220.193,1842.287,1178.208,1895.472,1178.208z"/>
			<g>
				<path style="fill:#FFC0B1;" d="M1913.721,1178.208c0,46.504,37.699,84.202,84.202,84.202c46.504,0,84.202-37.699,84.202-84.202
					H1913.721z"/>
				<path style="fill:#FFC0B1;" d="M1999.889,1231.531L1999.889,1231.531c28.656,0,51.239-24.407,49.018-52.977l-13.308-171.183
					H1966.1l-15.183,170.636C1948.357,1206.767,1971.015,1231.531,1999.889,1231.531z"/>
				<path style="fill:#FFC0B1;" d="M2048.461,864.615h-219.855l1.834,13.636c6.34,47.143,8.362,94.809,5.204,142.272
					c-1.51,22.708,0.114,49.762,11.444,71.639c22.224,42.914,73.97,62.128,117.875,41.93
					C2009.219,1113.731,2077.705,1049.931,2048.461,864.615z"/>
				<path style="fill:#102A54;" d="M1925.031,1025.478h-20.304c-3.213,0-6.171-1.466-8.116-4.023
					c-1.945-2.557-2.568-5.8-1.711-8.896l17.615-63.589c0.341-1.231,1.614-1.957,2.849-1.612c1.231,0.341,1.954,1.616,1.612,2.849
					l-17.615,63.589c-0.468,1.69-0.127,3.461,0.935,4.858c1.063,1.396,2.678,2.197,4.432,2.197h20.304
					c1.278,0,2.314,1.036,2.314,2.315C1927.346,1024.441,1926.31,1025.478,1925.031,1025.478z"/>
				<circle style="fill:#102A54;" cx="1952.663" cy="956.193" r="11.163"/>
				<circle style="fill:#102A54;" cx="1873.036" cy="953.991" r="11.163"/>
				<path style="fill:#102A54;" d="M1954.464,1140.453c-0.975,0-1.881-0.62-2.2-1.597c-0.396-1.215,0.267-2.521,1.481-2.919
					c0.309-0.101,31.123-10.389,51.708-34.595c0.828-0.975,2.29-1.091,3.264-0.264c0.974,0.828,1.092,2.289,0.264,3.264
					c-21.455,25.229-52.488,35.567-53.799,35.995C1954.943,1140.416,1954.701,1140.453,1954.464,1140.453z"/>
				<path style="fill:#102A54;" d="M2111.302,864.616c-24.095-61.613-70.507-61.607-80.4-60.864
					c16.259-10.266,27.067-28.38,27.067-49.03c0-32.009-25.949-57.958-57.958-57.958c-32.01,0-57.958,25.948-57.958,57.958
					c0,8.55,1.867,16.66,5.191,23.966c-18.586,0.123-37.239,3.783-54.88,10.931c-88.445,35.841-63.76,98.342-63.76,98.342
					c59.288,37.599,137.25,14.768,178.161-2.015l7.117,70.246l15.831,70.027l11.201,49.546
					C2040.916,1075.766,2138.366,933.82,2111.302,864.616z"/>
				<path style="fill:#102A54;" d="M1896.835,937.215c-1.209,0-2.429-0.369-3.481-1.135c-23.911-17.418-38.675-3.745-39.291-3.154
					c-2.318,2.306-6.047,2.278-8.354-0.04c-2.306-2.318-2.277-6.086,0.041-8.392c7.573-7.538,28.727-16.813,54.576,2.015
					c2.643,1.925,3.225,5.629,1.299,8.271C1900.467,936.371,1898.663,937.215,1896.835,937.215z"/>
				<path style="fill:#102A54;" d="M1973.608,937.593c-1.209,0-2.429-0.369-3.481-1.135c-23.911-17.419-38.676-3.745-39.292-3.154
					c-2.317,2.305-6.046,2.277-8.354-0.041c-2.307-2.318-2.277-6.086,0.041-8.393c7.574-7.537,28.729-16.813,54.577,2.016
					c2.643,1.925,3.225,5.629,1.299,8.271C1977.24,936.748,1975.437,937.593,1973.608,937.593z"/>
				<g>
					<path style="fill:#FFFFFF;" d="M1879.621,1044.571c0,0,23.014,3.77,45.41,0.137c0,0-1.14,29.408-32.651,24.594
						C1869.121,1065.749,1879.621,1044.571,1879.621,1044.571z"/>
					<path style="fill:#102A54;" d="M1897.643,1071.974c-12.32,0-18.814-6.842-19.142-7.196c-0.689-0.746-0.644-1.909,0.103-2.599
						c0.745-0.689,1.909-0.646,2.599,0.103c0.34,0.36,8.588,8.91,24.546,4.982c15.823-3.896,17.435-22.509,17.449-22.696
						c0.078-1.012,0.961-1.771,1.975-1.693c1.014,0.078,1.771,0.962,1.693,1.975c-0.017,0.215-1.859,21.463-20.238,25.987
						C1903.353,1071.642,1900.355,1071.974,1897.643,1071.974z"/>
				</g>
				<g>
					<g>
						<g>
							<path style="fill:#3C94F8;" d="M2049.058,922.141c22.031,3.328,39.019,24.554,39.019,50.243
								c0,27.999-20.181,50.697-45.076,50.697s-45.076-22.698-45.076-50.697c0-27.999,20.181-50.697,45.076-50.697
								C2045.054,921.687,2047.077,921.841,2049.058,922.141"/>
							<path style="fill:#102A54;" d="M2039.181,1022.886c-0.269,0-0.543-0.049-0.809-0.152
								c-18.22-7.097-30.462-27.331-30.462-50.349c0-29.185,19.788-52.928,44.11-52.928c1.232,0,2.231,0.998,2.231,2.231
								c0,1.232-0.999,2.231-2.231,2.231c-21.862,0-39.647,21.742-39.647,48.466c0,21.194,11.099,39.756,27.618,46.191
								c1.148,0.447,1.717,1.74,1.27,2.889C2040.917,1022.346,2040.074,1022.886,2039.181,1022.886z"/>
						</g>
						<path style="fill:#102A54;" d="M2010.774,1001.154c-1.229-0.355-2.51,0.365-2.858,1.595
							c-0.125,0.438-11.704,40.015-45.195,64.054c-3.247-4.673-13.179-5.445-23.381-1.54c-11.081,4.241-18.263,12.383-16.042,18.184
							c2.22,5.802,13.003,7.066,24.084,2.824c8.852-3.388,15.199-9.263,16.27-14.448c36.151-24.694,48.184-65.923,48.718-67.813
							C2012.717,1002.78,2012.003,1001.501,2010.774,1001.154z"/>
						<path style="fill:#3C94F8;" d="M2032.711,923.015c0,0-5.474-118.333-140.345-133.396c0,0,18.855-9.05,45.284-10.549
							c0,0,112.021,28.969,105.351,142.616L2032.711,923.015z"/>
					</g>
					<ellipse style="fill:#102A54;" cx="2052.021" cy="971.284" rx="12.002" ry="15.091"/>
				</g>
				<g>
					<path style="fill:#102A54;" d="M1997.924,1262.411c0,0,25.157,62.788,66.099,46.866
						c40.942-15.922,43.217-131.068,43.217-131.068h-25.114C2082.126,1178.208,2075.121,1248.526,1997.924,1262.411z"/>
					<path style="fill:#102A54;" d="M1996.713,1262.411c0,0-25.157,62.788-66.099,46.866s-43.217-131.068-43.217-131.068h25.114
						C1912.51,1178.208,1919.515,1248.526,1996.713,1262.411z"/>
				</g>
			</g>
			<path style="fill:#102A54;" d="M2020.945,1820.942c-1.231,0-2.257-0.971-2.311-2.214l-24.234-556.217
				c-0.056-1.277,0.935-2.357,2.212-2.413c1.25-0.087,2.357,0.934,2.413,2.212l24.234,556.217c0.056,1.277-0.935,2.357-2.212,2.413
				C2021.014,1820.942,2020.979,1820.942,2020.945,1820.942z"/>
			
				<ellipse transform="matrix(0.7071 -0.7071 0.7071 0.7071 -375.9205 1835.9141)" style="fill:#102A54;" cx="2028.184" cy="1371.733" rx="12.199" ry="12.199"/>
			
				<ellipse transform="matrix(0.7071 -0.7071 0.7071 0.7071 -455.4211 1872.955)" style="fill:#102A54;" cx="2033.146" cy="1486.219" rx="12.199" ry="12.199"/>
			<circle style="fill:#102A54;" cx="2038.108" cy="1600.706" r="12.199"/>
			
				<ellipse transform="matrix(0.7071 -0.7071 0.7071 0.7071 -614.4223 1947.037)" style="fill:#102A54;" cx="2043.07" cy="1715.192" rx="12.199" ry="12.199"/>
		</g>
		<path style="fill:#102A54;" d="M2181.082,1205.839l232.23,241.231l-156.385,105.695
			C2256.927,1552.764,2099.604,1410.902,2181.082,1205.839z"/>
		<g>
			<g>
				<g>
					<path style="fill:#FFC0B1;" d="M2704.18,1335.155l50.73-90.985h0c9.33,5.116,13.9,15.991,11.024,26.236l-11.197,39.899
						l98.625-49.962c8.197-3.674,17.704,1.078,19.685,9.839l3.35,14.816c6.587,29.13-10.65,58.352-39.333,66.678l-71.738,20.824
						l-31.247,8.825L2704.18,1335.155z"/>
					<path style="fill:#102A54;" d="M2756.339,1351.54c-0.293,0-0.59-0.061-0.874-0.189c-1.065-0.483-1.538-1.739-1.055-2.805
						c8.341-18.393-1.441-37.054-1.541-37.24c-0.552-1.031-0.163-2.315,0.868-2.868c1.032-0.552,2.316-0.162,2.868,0.868
						c0.447,0.836,10.859,20.713,1.664,40.99C2757.915,1351.078,2757.145,1351.54,2756.339,1351.54z"/>
				</g>
				<path style="fill:#FFC0B1;" d="M2386.639,1464.832l59.542,60.456l263.589-200.415l38.122,50.423l-222.369,244.228
					c-18.793,20.641-44.7,33.405-72.518,35.731h0c-30.57,2.555-60.827-7.709-83.531-28.338l-94.975-86.293L2386.639,1464.832z"/>
			</g>
			<path style="fill:#102A54;" d="M2435.812,1590.626c-0.973,0-1.849-0.674-2.067-1.662c-8.34-37.768,9.933-63.819,10.715-64.91
				c0.682-0.951,2.005-1.171,2.956-0.487c0.951,0.682,1.169,2.005,0.488,2.955c-0.228,0.32-17.928,25.727-10.021,61.528
				c0.252,1.143-0.47,2.273-1.612,2.526C2436.116,1590.609,2435.963,1590.626,2435.812,1590.626z"/>
		</g>
	</g>
</g>
<g>
	<g>
		<path style="fill:#0C203F;" d="M1430.506,1674.515H699.372c-26.963,0-48.821-21.858-48.821-48.821v-459.615
			c0-26.963,21.858-48.821,48.821-48.821h731.134c26.963,0,48.821,21.858,48.821,48.821v459.615
			C1479.327,1652.657,1457.469,1674.515,1430.506,1674.515z"/>
		<path style="fill:#102A54;" d="M1117.152,1803.192h-112.014c-11.543,0-20.9-9.357-20.9-20.9v-225.299
			c0-11.543,9.357-20.9,20.9-20.9h112.014c11.543,0,20.9,9.357,20.9,20.9v225.299
			C1138.052,1793.834,1128.695,1803.192,1117.152,1803.192z"/>
	</g>
	<path style="fill:#0C203F;" d="M1240.687,1820.744H889.191c-7.022,0-12.714-5.692-12.714-12.714v-9.099
		c0-7.022,5.692-12.714,12.714-12.714h351.496c7.022,0,12.714,5.693,12.714,12.714v9.099
		C1253.401,1815.052,1247.709,1820.744,1240.687,1820.744z"/>
</g>
<g>
	<circle style="fill:#CCE6FF;" cx="1117.432" cy="668.343" r="267.71"/>
	<g>
		<path style="fill:#E6515C;" d="M1210.994,572.676h-187.083c-21.142,0-38.754,14.512-43.707,33.947l-0.001-0.032L878.861,789.924
			c0,0,27.141,48.472,50.67,69.104l56.403-81.295l-0.443-13.218l6.445,140.357c37.431,19.901,80.146,31.181,125.495,31.181
			c45.467,0,88.285-11.339,125.787-31.336l12.838-284.901C1257.214,594.131,1236.704,572.676,1210.994,572.676z"/>
		<path style="fill:#E6515C;" d="M1360.434,653.032l-113.008-205.238l-43.129,19.284l49.406,141.873l-1.837,103.88l69.635,6.166
			c18.56,6.125,39.147-4.857,43.701-24.712v-0.001C1368.389,680.395,1366.705,665.83,1360.434,653.032z"/>
		<path style="fill:#FFC0B1;" d="M1242.484,450.004l-0.818-13.696c-0.662-11.083-4.471-21.748-10.98-30.742l-8.38-11.58
			l-6.253,45.534l4.549,23.138L1242.484,450.004z"/>
		<path style="fill:#102A54;" d="M1222.256,464.135c-0.795,0-1.451-0.632-1.475-1.433l-0.684-22.895l0.003-0.061l2.386-45.838
			c0.043-0.814,0.741-1.45,1.551-1.398c0.814,0.043,1.44,0.737,1.398,1.551l-2.383,45.777l0.681,22.774
			c0.024,0.815-0.617,1.496-1.432,1.52C1222.286,464.135,1222.271,464.135,1222.256,464.135z"/>
		<g>
			<path style="fill:#FFC0B1;" d="M1116.478,605.676L1116.478,605.676c-18.279,0.023-32.705-15.529-31.31-33.755l8.353-109.207
				l44.333-0.055l9.821,108.836C1149.33,589.838,1134.896,605.653,1116.478,605.676z"/>
			<path style="fill:#FFC0B1;" d="M1085.203,371.661l140.245-0.174l-1.159,8.7c-4.007,30.078-5.259,60.485-3.207,90.759
				c0.982,14.484-0.033,31.743-7.243,45.708c-14.143,27.393-47.136,39.69-75.159,26.84
				C1110.432,530.54,1066.695,489.896,1085.203,371.661z"/>
			<path style="fill:#102A54;" d="M1164.064,474.176c-0.814,0-1.476-0.66-1.477-1.475c-0.001-0.815,0.659-1.478,1.475-1.479
				l12.951-0.016c1.119-0.001,2.149-0.514,2.826-1.405c0.676-0.892,0.892-2.021,0.592-3.099l-11.287-40.549
				c-0.219-0.786,0.241-1.6,1.026-1.818c0.784-0.22,1.6,0.24,1.818,1.026l11.287,40.549c0.55,1.974,0.155,4.043-1.084,5.676
				c-1.239,1.633-3.125,2.571-5.174,2.574l-12.951,0.016C1164.065,474.176,1164.064,474.176,1164.064,474.176z"/>
			
				<ellipse transform="matrix(0.7071 -0.7071 0.7071 0.7071 31.7108 936.5605)" style="fill:#102A54;" cx="1146.384" cy="430.002" rx="7.121" ry="7.121"/>
			<path style="fill:#102A54;" d="M1204.297,428.525c0.005,3.933-3.179,7.125-7.112,7.13c-3.933,0.005-7.125-3.179-7.13-7.112
				s3.179-7.125,7.112-7.13C1201.1,421.408,1204.292,424.592,1204.297,428.525z"/>
			<path style="fill:#102A54;" d="M1145.38,547.542c-0.151,0-0.305-0.023-0.457-0.073c-0.836-0.272-20.64-6.842-34.346-22.919
				c-0.529-0.621-0.455-1.553,0.166-2.081c0.621-0.529,1.554-0.454,2.082,0.165c13.15,15.425,32.815,21.962,33.012,22.026
				c0.775,0.253,1.199,1.086,0.947,1.861C1146.581,547.145,1146.002,547.542,1145.38,547.542z"/>
			<path style="fill:#102A54;" d="M1100.195,376.98c0,0,2.076,49.343-9.688,57.134c-11.764,7.79-15.684-7.158-15.684-7.158
				s-16.747-50.455,10.097-61.656C1101.368,358.436,1100.195,376.98,1100.195,376.98z"/>
			<path style="fill:#102A54;" d="M1175.168,501.338c-0.023,0-0.045,0-0.069-0.001c-0.589-0.027-14.551-0.876-26.655-19.588
				c-0.443-0.685-0.247-1.599,0.438-2.042c0.684-0.442,1.598-0.247,2.042,0.438c11.221,17.345,24.187,18.235,24.316,18.242
				c0.812,0.044,1.439,0.736,1.398,1.548C1176.6,500.724,1175.95,501.338,1175.168,501.338z"/>
			<path style="fill:#102A54;" d="M1073.022,377.151c0,0-12.281-66.809,50.532-74.02c62.813-7.21,130.325,1.557,145.514-22.257
				c0,0,17.844,82.594-43.621,90.612C1163.982,379.505,1073.022,377.151,1073.022,377.151z"/>
			<g>
				<path style="fill:#102A54;" d="M1143.259,450.737c-10.934,0-20.766-7.666-23.073-18.783c-1.279-6.165-0.082-12.46,3.373-17.723
					c3.454-5.264,8.752-8.868,14.917-10.147c6.167-1.279,12.46-0.081,17.723,3.373c5.264,3.454,8.868,8.752,10.147,14.917l0,0
					c2.642,12.726-5.563,25.229-18.289,27.87C1146.448,450.577,1144.841,450.737,1143.259,450.737z M1143.308,406.538
					c-1.407,0-2.823,0.145-4.232,0.437c-5.393,1.119-10.026,4.272-13.048,8.876c-3.021,4.604-4.069,10.11-2.95,15.502
					c2.311,11.132,13.251,18.311,24.378,15.998c5.393-1.119,10.026-4.272,13.048-8.876s4.069-10.11,2.95-15.502l0,0
					c-1.119-5.393-4.271-10.026-8.876-13.048C1151.177,407.693,1147.283,406.538,1143.308,406.538z"/>
				<path style="fill:#102A54;" d="M1200.201,451.479c-10.934,0-20.766-7.666-23.073-18.783
					c-2.642-12.727,5.563-25.229,18.289-27.871c6.164-1.281,12.458-0.082,17.723,3.373c5.264,3.454,8.868,8.752,10.148,14.916l0,0
					c1.279,6.165,0.082,12.459-3.373,17.723c-3.454,5.264-8.752,8.868-14.917,10.147
					C1203.389,451.318,1201.783,451.479,1200.201,451.479z M1200.249,407.28c-1.406,0-2.823,0.145-4.232,0.437
					c-11.132,2.311-18.308,13.247-15.998,24.378c1.119,5.393,4.271,10.026,8.876,13.048c4.604,3.022,10.112,4.07,15.502,2.95
					c5.393-1.119,10.026-4.272,13.048-8.876c3.021-4.604,4.069-10.11,2.95-15.502l0,0c-1.119-5.393-4.271-10.026-8.876-13.048
					C1208.119,408.435,1204.225,407.28,1200.249,407.28z"/>
				<path style="fill:#102A54;" d="M1162.88,418.463c-0.497,0-0.981-0.25-1.26-0.703c-0.426-0.694-0.211-1.602,0.481-2.029
					c0.412-0.253,10.176-6.15,18.36-0.195c0.66,0.479,0.805,1.403,0.325,2.063c-0.48,0.659-1.404,0.804-2.063,0.325
					c-6.569-4.779-14.99,0.271-15.074,0.323C1163.409,418.393,1163.143,418.463,1162.88,418.463z"/>
			</g>
			<path style="fill:#102A54;" d="M1122.609,420.815c-0.06,0-0.12-0.004-0.18-0.011l-31.757-3.861
				c-0.81-0.099-1.386-0.835-1.288-1.644c0.099-0.81,0.833-1.382,1.644-1.288l31.757,3.861c0.81,0.099,1.386,0.834,1.288,1.644
				C1123.981,420.265,1123.345,420.815,1122.609,420.815z"/>
			<g>
				<path style="fill:#FFC0B1;" d="M1094.129,430.067c0.016,12.689-6.989,22.984-15.646,22.995
					c-8.657,0.011-15.687-10.267-15.703-22.956c-0.016-12.689,6.989-22.984,15.646-22.995
					C1087.082,407.101,1094.113,417.378,1094.129,430.067z"/>
				<path style="fill:#102A54;" d="M1082.402,453.833c-0.74,0-1.378-0.555-1.465-1.307c-0.093-0.803,0.477-1.529,1.275-1.633
					c0.121-0.021,4.306-0.798,7.764-8.28c0.342-0.74,1.22-1.063,1.96-0.721c0.74,0.342,1.063,1.22,0.721,1.96
					c-4.252,9.199-9.848,9.944-10.083,9.972C1082.516,453.831,1082.459,453.833,1082.402,453.833z"/>
			</g>
		</g>
	</g>
	<path style="fill:#102A54;" d="M1251.867,714.308c-0.022,0-0.045,0-0.067-0.002c-0.815-0.037-1.445-0.727-1.409-1.542l2.005-44.488
		c0.037-0.815,0.72-1.443,1.542-1.409c0.815,0.037,1.445,0.727,1.409,1.542l-2.005,44.488
		C1253.305,713.69,1252.652,714.308,1251.867,714.308z"/>
	<path style="fill:#102A54;" d="M1321.5,720.474c-0.272,0-0.547-0.075-0.793-0.232c-16.225-10.355-33.701-35.123-51.943-73.616
		c-13.534-28.558-22.465-54.446-22.554-54.705c-0.265-0.771,0.146-1.611,0.917-1.876c0.773-0.265,1.611,0.146,1.876,0.917
		c0.352,1.025,35.62,102.747,73.293,126.79c0.688,0.438,0.889,1.352,0.45,2.039C1322.464,720.233,1321.987,720.474,1321.5,720.474z"
		/>
	<path style="fill:#102A54;" d="M985.935,779.209c-0.815,0-1.477-0.661-1.477-1.477v-92.31c0-0.816,0.661-1.477,1.477-1.477
		c0.815,0,1.477,0.661,1.477,1.477v92.31C987.411,778.548,986.75,779.209,985.935,779.209z"/>
</g>
<g>
	<path style="fill:#FFFFFF;" d="M2376.696,666.726c-116.255,0-210.5,68.555-210.5,153.121c0,52.82,36.769,99.392,92.701,126.916
		l-39.625,54.102c-3.699,5.051,0.966,11.957,7.032,10.411l152.952-28.099c119.744-22.835,207.938-78.764,207.938-163.33
		C2587.196,735.281,2492.952,666.726,2376.696,666.726z"/>
	<path style="fill:#CCE6FF;" d="M2214.982,1013.336c-2.776,0-5.387-1.357-7.009-3.759c-2.038-3.018-1.965-6.864,0.187-9.802
		l38.331-52.336c-57.506-28.982-91.765-76.546-91.765-127.592c0-41.505,22.165-80.487,62.413-109.764
		c40.071-29.148,93.317-45.201,149.931-45.201s109.859,16.053,149.931,45.201c40.248,29.277,62.413,68.259,62.413,109.764
		c0,41.147-20.123,76.911-59.812,106.296c-36.074,26.71-87.813,47.058-149.625,58.846l-152.907,28.09
		C2216.373,1013.252,2215.672,1013.336,2214.982,1013.336z M2367.07,668.571c-115.054,0-208.656,67.862-208.656,151.276
		c0,50.188,34.27,97.015,91.672,125.262l1.973,0.971l-40.924,55.875c-1.48,2.021-1.024,4.197-0.105,5.559
		c0.92,1.36,2.764,2.596,5.195,1.977l0.122-0.026l152.952-28.099c61.258-11.682,112.478-31.803,148.109-58.185
		c38.697-28.652,58.318-63.418,58.318-103.332C2575.727,736.433,2482.124,668.571,2367.07,668.571z"/>
	<g>
		<path style="fill:#CCE6FF;" d="M2236.331,794.605h263.743c0.974,0,1.764-0.79,1.764-1.764v-13.67c0-0.974-0.79-1.764-1.764-1.764
			h-263.743c-0.974,0-1.764,0.79-1.764,1.764v13.67C2234.567,793.815,2235.357,794.605,2236.331,794.605z"/>
		<path style="fill:#CCE6FF;" d="M2236.331,832.621h263.743c0.974,0,1.764-0.79,1.764-1.764v-13.67c0-0.974-0.79-1.764-1.764-1.764
			h-263.743c-0.974,0-1.764,0.79-1.764,1.764v13.67C2234.567,831.831,2235.357,832.621,2236.331,832.621z"/>
		<path style="fill:#CCE6FF;" d="M2360.995,870.637h139.557c0.71,0,1.286-0.576,1.286-1.286v-14.625c0-0.71-0.576-1.286-1.286-1.286
			h-139.557c-0.71,0-1.286,0.576-1.286,1.286v14.625C2359.708,870.062,2360.284,870.637,2360.995,870.637z"/>
	</g>
</g>
<g>
	<g>
		<path style="fill:#6CB597;" d="M3030.242,1544.667c-30.063,11.323-60.409,22.796-88.146,38.8
			c3.939-8.182,7.033-16.714,9.094-25.495c9.834-41.897-0.358-89.597-26.544-123.749c-21.483,33.329-43.18,67.099-55.804,104.688
			c-0.15,0.447-0.292,0.897-0.439,1.346c-2.512-4.635-5.191-9.17-8.021-13.577c-21.427-33.366-50.718-60.809-79.694-87.88
			c-17.048,39.515-15.276,88.26,4.498,126.484c1.723,3.33,3.616,6.57,5.646,9.728c-23.305-11.794-47.987-21.119-72.48-30.345
			c-0.693,43.03,19.531,87.417,52.385,115.214c27.82,23.537,66.626,33.935,103.561,31.829c36.935,2.106,75.741-8.292,103.561-31.829
			C3010.711,1632.085,3030.936,1587.698,3030.242,1544.667z"/>
		<path style="fill:#102A54;" d="M2900.836,1686.675c-0.688,0-1.322-0.453-1.521-1.148
			c-15.816-55.353-108.335-108.608-109.268-109.14c-0.76-0.433-1.024-1.399-0.592-2.158s1.398-1.027,2.158-0.592
			c0.236,0.134,23.858,13.66,49.143,33.945c34.074,27.338,54.8,53.27,61.602,77.075c0.24,0.84-0.246,1.716-1.087,1.956
			C2901.126,1686.655,2900.98,1686.675,2900.836,1686.675z"/>
		<path style="fill:#102A54;" d="M2900.835,1635.67c-0.816,0-1.51-0.628-1.576-1.456c-2.909-36.27-31.545-94.017-31.834-94.596
			c-0.391-0.782-0.073-1.733,0.709-2.123c0.784-0.391,1.734-0.072,2.123,0.709c0.292,0.585,29.2,58.883,32.158,95.756
			c0.069,0.872-0.58,1.635-1.451,1.705C2900.921,1635.668,2900.878,1635.67,2900.835,1635.67z"/>
		<path style="fill:#102A54;" d="M2896.711,1658.825c-0.156,0-0.314-0.023-0.472-0.071c-0.834-0.26-1.301-1.147-1.041-1.982
			c10.777-34.638,45.365-73.96,45.714-74.353c0.578-0.655,1.578-0.719,2.233-0.136c0.655,0.579,0.716,1.579,0.137,2.233
			c-0.344,0.389-34.487,39.212-45.061,73.196C2898.011,1658.391,2897.385,1658.825,2896.711,1658.825z"/>
	</g>
	<path style="fill:#102A54;" d="M2917.987,1819.015h-72.757c-13.315,0-24.109-10.794-24.109-24.109v-113.081h120.976v113.081
		C2942.096,1808.221,2931.302,1819.015,2917.987,1819.015z"/>
</g>
<path style="fill:#102A54;" d="M3292.182,1825.744H289.684c-3.063,0-5.547-2.238-5.547-5s2.484-5,5.547-5h3002.498
	c3.063,0,5.547,2.238,5.547,5S3295.245,1825.744,3292.182,1825.744z"/>
<g>
	<path style="fill:#CCE6FF;" d="M2624.953,425.78c0-68.554-55.574-124.128-124.128-124.128s-124.128,55.574-124.128,124.128
		c0,37.22,16.386,70.608,42.332,93.359c2.265-35.746,27.424-65.27,60.99-74.052c-15.463-7.668-26.098-23.607-26.098-42.038
		c0-25.905,21-46.905,46.904-46.905s46.905,21,46.905,46.905c0,18.43-10.635,34.369-26.098,42.038
		c33.565,8.782,58.725,38.305,60.99,74.051C2608.567,496.389,2624.953,463,2624.953,425.78z"/>
	<path style="fill:#80C0FF;" d="M2521.631,445.088c15.463-7.668,26.098-23.607,26.098-42.038c0-25.905-21-46.905-46.905-46.905
		s-46.904,21-46.904,46.905c0,18.43,10.635,34.369,26.098,42.038c-33.565,8.782-58.725,38.305-60.99,74.052
		c21.844,19.153,50.462,30.769,81.796,30.769c31.335,0,59.953-11.616,81.797-30.769
		C2580.355,483.393,2555.196,453.87,2521.631,445.088z"/>
</g>
<path style="fill:#0C203F;" d="M1866.59,1822.115h-474.818c-3.862,0-6.994-3.131-6.994-6.994v-21.912
	c0-3.862,3.131-6.994,6.994-6.994h474.818c3.862,0,6.994,3.131,6.994,6.994v21.912
	C1873.583,1818.984,1870.452,1822.115,1866.59,1822.115z"/>
<g>
	<path style="fill:#0C203F;" d="M2214.396,1820.401h-106.752v-29.947c0-29.479,23.897-53.376,53.376-53.376l0,0
		c29.479,0,53.376,23.897,53.376,53.376V1820.401z"/>
	<path style="fill:#FFFFFF;" d="M2161.02,1802.443c-0.828,0-1.5-0.672-1.5-1.5v-63.865c0-0.828,0.672-1.5,1.5-1.5s1.5,0.672,1.5,1.5
		v63.865C2162.52,1801.771,2161.848,1802.443,2161.02,1802.443z"/>
</g>
</svg>
