<?xml version="1.0" encoding="utf-8"?>
<!-- Generator: Adobe Illustrator 27.5.0, SVG Export Plug-In . SVG Version: 6.00 Build 0)  -->
<svg version="1.1" xmlns="http://www.w3.org/2000/svg" xmlns:xlink="http://www.w3.org/1999/xlink" x="0px" y="0px"
	 viewBox="0 0 500 500" style="enable-background:new 0 0 500 500;" xml:space="preserve">
<g id="BACKGROUND">
	<rect y="-0.005" style="fill:#FFFFFF;" width="500" height="500"/>
</g>
<g id="OBJECTS">
	<ellipse style="fill:#EBF4FA;" cx="250" cy="417.713" rx="147.042" ry="12.284"/>
	<path style="fill:#EBF4FA;" d="M500,0v166.342c-7.22,7.41-15.45,13.08-24.71,15.42c-41.69,10.56-43.8,25.33-55.94,84.81
		c-12.14,59.48-64.38,13.35-69.66,60.89c-5.27,47.54-52.77,20.53-68.29,69.06c0,0-49.1,25.46-65.83-29.68
		c-16.73-55.14-35.276-47.269-93.326-57.419c-58.05-10.15-1.268-86.338-77.034-88.931c-14.686-0.503-30.46-2.4-45.21-8.48V0H500z"/>
	<g>
		<g>
			<g>
				<g>
					<path style="fill:#F2C7C4;" d="M312.996,396.824c0,0,22.387,6.35,33.001,6.781l12.711,5.799
						c1.69,0.771,2.167,2.948,0.955,4.355l0,0c-0.681,0.791-1.748,1.135-2.763,0.891l-11.323-2.72l-28.496,0.218L312.996,396.824z"
						/>
				</g>
				<g>
					<path style="fill:#F2C7C4;" d="M305.497,410.268c1.23,6.899,16.924,4.388,22.365,4.388c4.108,0,11.914-0.166,15.492-0.247
						c1.13-0.026,2.121-0.751,2.491-1.819l0,0c0.552-1.593-0.473-3.298-2.138-3.559l-12.715-1.989l-19.415-10.592L305.497,410.268z"
						/>
				</g>
				<g>
					<path style="fill:#F2C7C4;" d="M319.749,398.883l26.247,3.06l7.982,7.638c0.999,0.956,1.102,2.516,0.239,3.595l0,0
						c-0.869,1.087-2.428,1.324-3.581,0.544l-6.93-4.689l-23.959,0.573V398.883z"/>
				</g>
			</g>
		</g>
		<path style="fill:#F2C7C4;" d="M304.185,261.731c10.114,39.932,14.542,120.559,14.542,120.559l-29.694-1.402l-3.099-111.541
			L304.185,261.731z"/>
		<path style="fill:#F2C7C4;" d="M211.081,258.174c-14.844,41.076-10.622,80.588-30.173,143.746l17.389,8.348
			c23.586-41.531,36.317-139.982,36.317-139.982L211.081,258.174z"/>
		<g>
			<g>
				<path style="fill:#F2C7C4;" d="M190.798,396.824c0,0-22.387,6.35-33.001,6.781l-12.711,5.799
					c-1.69,0.771-2.167,2.948-0.955,4.355l0,0c0.681,0.791,1.748,1.135,2.763,0.891l11.323-2.72l28.496,0.218L190.798,396.824z"/>
			</g>
			<g>
				<path style="fill:#F2C7C4;" d="M198.297,410.268c-1.23,6.899-16.924,4.388-22.365,4.388c-4.108,0-11.915-0.166-15.492-0.247
					c-1.13-0.026-2.122-0.751-2.491-1.819l0,0c-0.552-1.593,0.473-3.298,2.138-3.559l12.715-1.989l19.415-10.592L198.297,410.268z"
					/>
			</g>
			<g>
				<path style="fill:#F2C7C4;" d="M184.045,398.883l-26.247,3.06l-7.982,7.638c-0.999,0.956-1.103,2.516-0.24,3.595l0,0
					c0.869,1.087,2.428,1.324,3.581,0.544l6.929-4.689l23.959,0.573V398.883z"/>
			</g>
		</g>
		<path style="fill:#345870;" d="M221.894,330.862l-13.901,46.629c0,0-2.338,37.183,43.204,36.346
			c45.542-0.837,52.988-28.606,52.988-28.606l-19.69-54.369H221.894z"/>
		<path style="fill:#69A0E1;" d="M213.363,360.8c-0.622,3.185-0.976,4.6-0.976,4.6s34.742,17.007,88.293-0.944l-0.515-6.133
			l-3.56-41.937l0.021-0.011l1.984-0.686l0.375-0.129l22.1-7.699c-0.869-3.249-1.716-6.348-2.541-9.297
			c-6.809-24.395-11.999-38.731-17.318-43.428c-4.546-4.01-11.977-3.099-22.54,1.276c-6.058,2.499-13.135,6.144-21.296,10.648
			c0,0-8.364-5.544-18.197-10.004c-8.986-4.085-19.194-7.27-25.327-4.482c-8.021,3.635-14.991,30.131-18.218,44.382
			c-1.212,5.383-1.898,9.018-1.898,9.018l23.344,6.144l2.627,0.686l0.311,0.086l0.107,0.032
			C217.223,339.182,214.682,354.001,213.363,360.8z"/>
		<path style="fill:#5186C7;" d="M212.387,365.4c0,0,34.742,17.007,88.293-0.944l-0.515-6.133
			c-27.022,5.018-68.734,3.474-86.802,2.477C212.741,363.984,212.387,365.4,212.387,365.4z"/>
		<path style="fill:#5186C7;" d="M297.441,308.021l1.169,7.667l0.375-0.129l22.1-7.699c-0.869-3.249-1.716-6.348-2.541-9.297
			L297.441,308.021z"/>
		<path style="fill:#5186C7;" d="M238.176,263.489c0,11.538,9.34,20.878,20.867,20.878c11.527,0,20.878-9.34,20.878-20.878
			c0-2.488-0.44-4.868-1.233-7.077c-6.058,2.499-13.135,6.144-21.296,10.648c0,0-8.364-5.544-18.197-10.004
			C238.53,259.082,238.176,261.248,238.176,263.489z"/>
		<g>
			<path style="fill:#5186C7;" d="M240.979,336.185c1.49-0.916,3.83-0.63,5.545-0.78c1.839-0.16,3.672-0.372,5.5-0.628
				c3.696-0.517,7.348-1.256,10.971-2.146c7.276-1.787,14.34-4.217,21.056-7.552c1.638-0.813,3.052,1.61,1.415,2.492
				c-6.816,3.675-14.014,6.758-21.472,8.869c-3.734,1.057-7.557,1.855-11.39,2.454c-1.857,0.29-3.726,0.518-5.597,0.704
				c-1.902,0.189-4.267,0.756-6.029-0.106C239.618,338.827,239.816,336.899,240.979,336.185z"/>
			<path style="fill:#5186C7;" d="M241.046,325.273c1.599-0.594,3.684,0.146,5.342,0.304c1.839,0.176,3.691,0.273,5.538,0.274
				c3.619,0.003,7.269-0.324,10.809-1.08c1.693-0.362,2.359,2.115,0.684,2.609c-3.766,1.113-7.573,1.864-11.493,2.141
				c-1.914,0.135-3.827,0.161-5.743,0.062c-1.982-0.103-4.345-0.023-5.946-1.323C239.08,327.322,239.923,325.69,241.046,325.273z"/>
		</g>
		<g>
			<g>
				<path style="fill:#345870;" d="M242.497,369.79c-7.191-9.422-52.963-53.907-66.837-32.284
					c-13.874,21.624,3.781,53.322,35.495,68.602C242.87,421.389,270.09,405.941,242.497,369.79z"/>
				<path style="fill:#3A6885;" d="M173.94,354.439c4.602,10.597,12.197,19.535,20.59,27.333c4.42,4.107,9.133,7.884,13.954,11.507
					c4.639,3.487,9.324,6.962,14.141,10.2c4.817,3.238,9.981,5.867,15.892,6.093c1.301,0.049,1.152,1.863-0.073,1.965
					c-5.346,0.444-10.477-2.004-14.909-4.756c-4.925-3.058-9.579-6.622-14.236-10.068c-9.736-7.203-19.223-14.941-26.539-24.682
					c-3.982-5.302-7.239-10.999-9.51-17.236C173.083,354.339,173.736,353.969,173.94,354.439z"/>
				<path style="fill:#3A6885;" d="M228.328,355.022c8.305,6.344,15.598,14.228,20.653,23.428c1.429,2.601,2.702,5.285,3.823,8.033
					c0.553,1.355-1.533,2.297-2.081,0.932c-3.821-9.523-9.408-18.322-16.455-25.779c-2.003-2.12-4.12-4.154-6.371-6.01
					C227.531,355.325,227.945,354.73,228.328,355.022z"/>
				<g>
					<path style="fill:#FFFFFF;" d="M310.943,432.115l13.39-34.476c-4.699-1.393-8.76-1.799-8.76-1.799l-17.4,33.015
						C308.486,432.941,310.943,432.115,310.943,432.115z"/>
					<path style="fill:#3A6885;" d="M302.248,426.339c-1.261,0.993-2.616,1.845-4.069,2.531c-1.882-0.749-4.328-1.808-7.337-3.087
						c-2.794-1.192-6.077-2.613-9.815-4.205c-4.05-1.73-8.649-3.668-13.779-5.768c-0.119-6.308,0.682-13.284,2.688-19.32
						l0.013-0.001c10.365,2.056,26.906-0.44,38.822-0.868c3.07-0.119,5.485-0.076,6.799,0.225
						C316.964,397.55,313.702,417.365,302.248,426.339z"/>
					<path style="fill:#E0954A;" d="M250.235,389.86c-1.534-0.718-3.165-1.5-4.926-2.393
						C247.069,388.359,248.702,389.154,250.235,389.86z"/>
					<path style="fill:#E0954A;" d="M234.695,381.924l0.002,0.013c0.575,0.307,1.137,0.604,1.686,0.902
						C235.831,382.529,235.27,382.232,234.695,381.924z"/>
					<path style="fill:#F2C7C4;" d="M269.936,396.49c-2.007,6.036-2.808,13.012-2.688,19.32c-8.768-3.602-20.189-4.666-31.79-8.971
						l-0.766-24.901c0.576,0.308,1.137,0.604,1.686,0.903c1.11,0.595,2.19,1.156,3.217,1.698c1.014,0.544,1.998,1.053,2.954,1.541
						c0,0,0,0,0.012-0.002c0.943,0.489,1.858,0.957,2.731,1.391c0.012-0.002,0.012-0.002,0.012-0.002
						c1.761,0.893,3.394,1.688,4.926,2.394c2.688,1.257,5.049,2.262,7.263,3.109c0.617,0.238,1.233,0.464,1.835,0.679
						c0.306,0.1,0.614,0.213,0.919,0.301c0.589,0.217,1.173,0.396,1.758,0.575c0.292,0.09,0.584,0.179,0.889,0.267
						c0.57,0.168,1.14,0.336,1.721,0.49C266.357,395.731,268.092,396.13,269.936,396.49z"/>
					<polygon style="fill:#F2C7C4;" points="235.462,406.837 234.696,381.937 234.695,381.924 234.682,381.926 					"/>
					<g>
						<path style="fill:#FFFFFF;" d="M290.983,425.862c-2.881-1.233-6.256-2.691-10.096-4.323
							C284.02,420.48,289.633,421.671,290.983,425.862z"/>
						<path style="fill:#FFFFFF;" d="M315.577,395.846c3.001,4.415-0.392,23.688-13.32,30.494
							C297.599,412.716,302.774,395.083,315.577,395.846z"/>
						<path style="fill:#FFFFFF;" d="M270.794,387.839c-1.304,0.1-2.228,1.137-2.513,2.497c-0.624,2.977,1.552,6.672,3.32,8.974
							c1.758,2.29,3.904,4.088,6.307,5.288c-1.939,0.096-3.816,0.547-5.561,1.427c-2.523,1.273-4.992,3.398-6.236,6.184
							c-1.12,2.507-0.712,6.475,2.206,7.709c2.898,1.225,5.711-1.39,7.501-3.314c2.094-2.25,4.002-5.345,4.782-8.662
							c-0.172,2.198-0.094,4.441,0.155,6.673c0.04,0.355,0.497,0.326,0.487-0.017c-0.073-2.493,0.141-4.944,0.501-7.357
							c0.178-1.19,0.405-2.366,0.702-3.515c0.282-1.092,0.814-2.216,0.936-3.356c0.059-0.554-0.645-1.004-0.956-0.534
							c-0.518,0.784-0.755,1.869-0.976,2.86c-0.445-5.117-3.291-10.486-7.177-13.478
							C273.255,388.437,272.004,387.746,270.794,387.839z M276.339,413.788c-1.46,2.05-3.624,4.61-6.154,5.01
							c-1.269,0.201-2.48-0.436-3.079-1.808c-0.633-1.449-0.38-3.007,0.239-4.271c1.165-2.382,3.309-4.178,5.5-5.326
							c2.135-1.118,4.543-1.646,6.993-1.615c-0.007,0.016-0.018,0.025-0.024,0.044C278.911,408.704,278.042,411.396,276.339,413.788
							z M274.076,390.649c1.884,1.673,3.439,3.834,4.509,6.201c1.081,2.392,1.61,4.951,1.822,7.518
							c-0.037-0.023-0.068-0.052-0.111-0.068c-2.446-0.917-4.741-2.538-6.618-4.579c-1.773-1.928-3.451-4.555-4.042-7.19
							c-0.307-1.368-0.059-3.201,1.411-3.329C272.123,389.107,273.23,389.897,274.076,390.649z"/>
						<path style="fill:#FFFFFF;" d="M286.327,401.868c-1.464,4.518-1.366,9.803-0.103,14.639c0.1,0.383,0.687,0.277,0.605-0.114
							c-0.493-2.357-0.71-4.77-0.644-7.131c0.067-2.392,0.492-4.632,1.076-6.872c0.055-0.212,0.042-0.518-0.163-0.673
							c-0.079-0.06-0.145-0.11-0.237-0.132C286.65,401.533,286.4,401.643,286.327,401.868z"/>
						<path style="fill:#FFFFFF;" d="M292.292,401.783c-1.939,4.331-2.826,9.455-2.909,14.433c-0.01,0.58,0.792,0.811,0.832,0.211
							c0.161-2.429,0.5-4.838,1-7.175c0.513-2.398,1.299-4.633,2.111-6.892C293.584,401.643,292.598,401.1,292.292,401.783z"/>
						<path style="fill:#FFFFFF;" d="M297.544,401.93c-0.054,0.011-0.108,0.022-0.162,0.033c-0.188,0.038-0.279,0.246-0.322,0.428
							c-0.286,1.225-0.706,2.394-0.976,3.629c-0.269,1.232-0.483,2.484-0.646,3.748c-0.322,2.494-0.418,5.009-0.285,7.571
							c0.026,0.499,0.798,0.593,0.8,0.088c0.01-2.487,0.162-4.978,0.502-7.401c0.164-1.172,0.373-2.332,0.625-3.475
							c0.278-1.257,0.53-2.581,0.998-3.752c0.074-0.185,0.041-0.413-0.073-0.591c-0.028-0.043-0.056-0.086-0.083-0.129
							C297.827,401.932,297.682,401.902,297.544,401.93z"/>
					</g>
					<polygon style="fill:#345870;" points="234.423,409.213 250.535,413.091 258.068,390.337 230.978,374.502 					"/>
				</g>
			</g>
			<g>
				<path style="fill:#345870;" d="M314.209,351.988c-11.433,3.126-69.852,28.841-55.022,49.82
					c14.83,20.979,50.838,16.522,76.911-7.133C362.171,371.02,358.076,339.991,314.209,351.988z"/>
				<g>
					<path style="fill:#FFFFFF;" d="M206.625,436.078L192.015,402.1c4.647-1.56,8.69-2.11,8.69-2.11l18.564,32.375
						C209.109,436.816,206.625,436.078,206.625,436.078z"/>
					<path style="fill:#3A6885;" d="M246.333,399.014c2.221,5.961,3.269,12.904,3.375,19.212c-5.052,2.28-9.58,4.382-13.565,6.255
						c-3.679,1.724-6.91,3.261-9.659,4.552c-2.962,1.385-5.368,2.53-7.222,3.346c-1.477-0.634-2.862-1.437-4.157-2.384
						c-11.766-8.56-15.731-28.246-14.398-30c1.302-0.347,3.714-0.476,6.786-0.467c11.923,0.004,28.543,1.909,38.828-0.515
						L246.333,399.014z"/>
					<path style="fill:#E0954A;" d="M265.789,391.688c1.508-0.773,3.11-1.612,4.838-2.567
						C268.899,390.075,267.296,390.928,265.789,391.688z"/>
					<path style="fill:#E0954A;" d="M281.037,383.204l-0.001,0.012c-0.564,0.328-1.115,0.645-1.652,0.962
						C279.922,383.848,280.473,383.532,281.037,383.204z"/>
					<path style="fill:#F2C7C4;" d="M281.157,408.129c-11.44,4.715-22.816,6.185-31.45,10.097
						c-0.105-6.308-1.154-13.251-3.375-19.212c1.83-0.425,3.55-0.885,5.274-1.396c0.575-0.174,1.139-0.363,1.702-0.551
						c0.301-0.099,0.59-0.198,0.879-0.298c0.577-0.2,1.155-0.399,1.736-0.637c0.301-0.099,0.605-0.222,0.908-0.334
						c0.594-0.236,1.201-0.484,1.81-0.744c2.182-0.925,4.507-2.014,7.148-3.366c1.506-0.76,3.11-1.612,4.838-2.567
						c0,0,0.011,0.014,0.013,0.001c0.856-0.465,1.754-0.965,2.68-1.488c0.012,0.001,0.012,0.001,0.012,0.001
						c0.938-0.521,1.903-1.065,2.897-1.645c1.007-0.578,2.066-1.177,3.154-1.811c0.538-0.318,1.088-0.634,1.652-0.962
						L281.157,408.129z"/>
					<polygon style="fill:#F2C7C4;" points="281.157,408.129 281.036,383.216 281.037,383.204 281.05,383.205 					"/>
					<g>
						<path style="fill:#FFFFFF;" d="M226.349,429.118c2.835-1.335,6.156-2.912,9.936-4.68
							C233.116,423.492,227.549,424.881,226.349,429.118z"/>
						<path style="fill:#FFFFFF;" d="M200.701,399.997c-2.842,4.519,1.235,23.659,14.397,30
							C219.269,416.216,213.469,398.779,200.701,399.997z"/>
						<path style="fill:#FFFFFF;" d="M241.745,391.904c-3.777,3.128-6.43,8.595-6.693,13.724c-0.256-0.982-0.532-2.059-1.077-2.823
							c-0.327-0.459-1.015,0.016-0.937,0.568c0.162,1.135,0.734,2.24,1.055,3.321c0.337,1.138,0.606,2.305,0.826,3.488
							c0.446,2.399,0.747,4.841,0.763,7.335c0.002,0.342,0.46,0.356,0.487-0.001c0.17-2.24,0.168-4.484-0.082-6.675
							c0.897,3.287,2.915,6.312,5.087,8.486c1.858,1.859,4.762,4.372,7.615,3.045c2.873-1.337,3.139-5.317,1.93-7.783
							c-1.342-2.739-3.885-4.775-6.453-5.957c-1.775-0.818-3.667-1.202-5.608-1.229c2.358-1.284,4.439-3.158,6.115-5.509
							c1.685-2.363,3.728-6.134,2.998-9.086c-0.333-1.348-1.294-2.352-2.6-2.406C243.958,390.351,242.732,391.085,241.745,391.904z
							 M236.796,408.693c-0.006-0.018-0.018-0.027-0.026-0.043c2.447-0.119,4.873,0.323,7.046,1.365
							c2.23,1.068,4.437,2.787,5.687,5.126c0.663,1.242,0.972,2.789,0.391,4.26c-0.55,1.392-1.737,2.071-3.013,1.916
							c-2.542-0.309-4.796-2.791-6.328-4.788C238.766,414.2,237.802,411.541,236.796,408.693z M244.967,391.77
							c1.474,0.076,1.787,1.899,1.529,3.277c-0.497,2.655-2.081,5.34-3.784,7.329c-1.803,2.107-4.04,3.808-6.451,4.812
							c-0.043,0.018-0.073,0.048-0.109,0.072c0.121-2.573,0.559-5.149,1.553-7.578c0.985-2.404,2.461-4.618,4.285-6.357
							C242.81,392.544,243.888,391.715,244.967,391.77z"/>
						<path style="fill:#FFFFFF;" d="M230.147,404.974c1.624,4.463,1.715,9.748,0.624,14.626c-0.087,0.387-0.677,0.301-0.609-0.092
							c0.409-2.373,0.54-4.793,0.39-7.149c-0.152-2.388-0.657-4.611-1.32-6.83c-0.063-0.21-0.061-0.517,0.139-0.678
							c0.077-0.062,0.14-0.115,0.232-0.141C229.813,404.65,230.067,404.751,230.147,404.974z"/>
						<path style="fill:#FFFFFF;" d="M224.183,405.101c2.092,4.26,3.161,9.349,3.421,14.32c0.03,0.58-0.763,0.838-0.824,0.241
							c-0.247-2.422-0.672-4.817-1.255-7.135c-0.598-2.378-1.463-4.584-2.355-6.812
							C222.887,405.007,223.853,404.429,224.183,405.101z"/>
						<path style="fill:#FFFFFF;" d="M218.939,405.435c0.054,0.009,0.109,0.018,0.163,0.027c0.189,0.031,0.288,0.236,0.337,0.416
							c0.329,1.214,0.791,2.368,1.104,3.592c0.313,1.221,0.571,2.465,0.779,3.723c0.411,2.481,0.596,4.991,0.555,7.556
							c-0.008,0.499-0.777,0.621-0.796,0.116c-0.098-2.485-0.339-4.969-0.765-7.379c-0.206-1.166-0.455-2.317-0.749-3.451
							c-0.323-1.246-0.622-2.56-1.131-3.714c-0.081-0.183-0.056-0.412,0.052-0.593c0.026-0.044,0.053-0.088,0.079-0.132
							C218.657,405.447,218.801,405.412,218.939,405.435z"/>
					</g>
				</g>
				<path style="fill:#345870;" d="M281.373,379.633c-0.633,0.192-29.974,15.527-29.974,15.527l8.474,21.441l28.461-6.056
					L281.373,379.633z"/>
				<path style="fill:#3A6885;" d="M251.982,394.956c3.521-2.067,7.23-3.761,10.995-5.329c-0.019-0.49-0.023-0.981,0.002-1.472
					c0.241-4.68,2.37-9.159,5.674-12.452c0.305-0.305,0.784,0.15,0.485,0.463c-3.088,3.234-4.723,7.618-4.559,12.083
					c0.072,1.959,0.467,3.917,1.197,5.738c0.352,0.877,0.768,1.73,1.247,2.544c0.523,0.887,1.344,1.701,1.688,2.668
					c0.291,0.82-0.755,1.635-1.485,1.176c-0.938-0.589-1.542-1.775-2.06-2.732c-0.538-0.992-0.998-2.039-1.332-3.117
					c-0.325-1.049-0.567-2.126-0.714-3.215c-3.409,1.61-6.696,3.474-9.933,5.403c1.94,5.887,4.218,11.669,6.752,17.325
					c4.079-1.934,8.768-3.05,13.283-2.816c-0.589-0.654-1.12-1.359-1.554-2.126c-0.981-1.733-1.45-3.598-1.619-5.57
					c-0.031-0.363,0.575-0.457,0.641-0.091c0.313,1.751,1.183,3.421,2.271,4.817c0.396,0.508,0.853,0.973,1.327,1.416
					c0.124-0.047,0.259-0.082,0.419-0.08c11.368,0.135,22.676-2.092,33.223-6.311c10.481-4.193,20.209-10.175,28.52-17.825
					c4.703-4.329,9.07-9.149,12.674-14.437c0.285-0.418,0.978-0.05,0.698,0.383c-3.139,4.848-6.641,9.432-10.68,13.569
					c-4.049,4.147-8.535,7.881-13.301,11.176c-9.514,6.578-20.285,11.238-31.586,13.698c-5.61,1.221-11.34,1.903-17.08,2.002
					c0.251,0.321,0.322,0.758,0.109,1.146c-0.276,0.504-0.919,0.678-1.42,0.414c-0.41-0.216-0.808-0.49-1.189-0.79
					c-0.124,0.254-0.366,0.447-0.758,0.444c-2.441-0.018-4.805,0.095-7.196,0.635c-2.359,0.533-4.62,1.371-6.763,2.49
					c-0.427,0.223-1.108,0.168-1.337-0.335c-2.867-6.283-5.162-12.778-6.964-19.442
					C251.372,395.948,251.384,395.307,251.982,394.956z"/>
			</g>
		</g>
		<path style="fill:#EBF4FA;" d="M222.103,296.215c4.679-0.527,9.397,0.324,14.088,0.606c4.626,0.278,9.261,0.408,13.895,0.39
			c9.314-0.037,18.63-0.69,27.874-1.815c5.254-0.64,10.522-1.304,15.796-1.74c1.803-0.149,1.697,2.424,0.255,2.914
			c-8.953,3.039-18.534,4.268-27.927,4.99c-9.412,0.724-18.871,0.838-28.298,0.335c-2.571-0.137-5.14-0.32-7.704-0.549
			c-2.816-0.251-5.47-0.507-8.128-1.504C220.368,299.248,220.082,296.443,222.103,296.215z"/>
		<path style="fill:#EBF4FA;" d="M220.766,307.627c9.821,1.219,19.568,2.731,29.467,3.304c9.785,0.566,19.606,0.441,29.383-0.132
			c5.625-0.329,11.264-0.467,16.849-1.202c1.65-0.217,2.2,2.131,0.534,2.463c-4.869,0.97-9.716,2.158-14.651,2.784
			c-5.06,0.643-10.154,1.036-15.257,1.207c-10.062,0.338-20.184,0.015-30.19-1.145c-5.717-0.663-11.393-1.484-16.955-2.934
			C217.434,311.32,218.133,307.301,220.766,307.627z"/>
		<path style="fill:#5186C7;" d="M294.396,292.913c-0.172,0.429-0.043,0.826,0.204,1.126c0.011,0.086,0.011,0.172,0.021,0.257
			c0.268,3.785,0.525,7.581,0.836,11.366c0.161,1.844,0.311,3.699,0.472,5.555c0.139,1.716,0.182,3.496,0.697,5.158l2.359-0.815
			c0.086-1.448-0.096-2.884-0.225-4.343c-0.172-1.941-0.343-3.882-0.515-5.823c-0.322-3.699-0.708-7.399-1.083-11.098
			c-0.022-0.204-0.043-0.407-0.064-0.611c0.633-0.933,1.094-2.016,1.523-3.034c0.483-1.158,0.922-2.338,1.308-3.539
			c0.783-2.423,1.319-4.932,1.662-7.463c0.064-0.493-0.129-1.008-0.676-1.137c-0.461-0.118-1.062,0.161-1.147,0.665
			c-0.397,2.445-1.051,4.825-1.984,7.12c-0.354,0.869-0.772,1.716-1.201,2.552c-0.633-5.769-1.34-11.527-1.995-17.296
			c-0.086-0.815-1.351-0.858-1.308,0c0.418,7.034,0.751,14.079,1.233,21.113C294.471,292.752,294.428,292.827,294.396,292.913z"/>
		<path style="fill:#5186C7;" d="M215.272,284.828c0.568,2.413,1.072,4.836,1.651,7.249c0.29,1.19,0.568,2.37,0.868,3.549
			c0.236,0.986,0.332,2.338,1.029,3.131c-0.236,2.316-0.482,4.632-0.761,6.938c-0.247,2.134-0.675,4.279-0.965,6.423l2.938,0.772
			c0.408-2.381,0.568-4.857,0.826-7.195c0.343-3.195,0.547-6.391,0.611-9.608c0.139-6.627,0.075-13.178-0.418-19.784
			c-0.064-0.89-1.415-0.911-1.394,0c0.139,5.447,0.075,10.98-0.311,16.438c-0.118-0.397-0.236-0.804-0.365-1.201
			c-0.718-2.38-1.523-4.729-2.252-7.099C216.44,283.519,215.046,283.884,215.272,284.828z"/>
		<path style="fill:#5186C7;" d="M193.751,305.973l23.344,6.144l2.627,0.686l1.137-7.109l-25.21-8.739
			C194.437,302.338,193.751,305.973,193.751,305.973z"/>
		<g>
			<g>
				<path style="fill:#FFFFFF;" d="M286.228,237.496l-7.158,1.727c-3.743,0.903-7.509-1.399-8.412-5.142l-2.145-8.893
					c-0.903-3.743,1.4-7.509,5.142-8.411l7.158-1.727c3.743-0.903,7.509,1.399,8.411,5.142l2.145,8.893
					C292.273,232.827,289.971,236.593,286.228,237.496z"/>
				<g>
					<path style="fill:#D9DADE;" d="M277.273,238.962c-2.897,0-5.397-1.971-6.078-4.792l-2.245-9.308
						c-0.81-3.355,1.262-6.742,4.616-7.551l2.628-0.634c0.484-0.117,0.98-0.176,1.474-0.176c2.897,0,5.397,1.971,6.078,4.792
						l2.244,9.307c0.393,1.625,0.129,3.305-0.743,4.732c-0.872,1.426-2.247,2.427-3.872,2.819l-2.628,0.634
						C278.262,238.903,277.766,238.962,277.273,238.962z"/>
					<g>
						<path style="fill:#5186C7;" d="M277.668,217.002L277.668,217.002c2.666,0,4.966,1.813,5.592,4.41l2.245,9.307
							c0.745,3.087-1.161,6.203-4.247,6.948l-2.628,0.634c-0.446,0.108-0.902,0.162-1.356,0.162c-2.666,0-4.966-1.813-5.592-4.409
							l-2.245-9.308c-0.361-1.495-0.117-3.041,0.685-4.353c0.802-1.312,2.067-2.234,3.563-2.594l2.628-0.634
							C276.757,217.056,277.214,217.002,277.668,217.002 M277.667,216.002c-0.525,0-1.058,0.062-1.59,0.19l-2.628,0.634
							c-3.628,0.875-5.86,4.526-4.985,8.154l2.245,9.308c0.747,3.096,3.514,5.175,6.564,5.175c0.525,0,1.058-0.062,1.591-0.19
							l2.628-0.634c3.628-0.875,5.86-4.526,4.985-8.155l-2.245-9.307C283.485,218.081,280.717,216.001,277.667,216.002
							L277.667,216.002z"/>
					</g>
				</g>
			</g>
			<g>
				<path style="fill:#345870;" d="M232.066,236.842c-5.075-5.652-8.175-14.556-8.175-14.556c-2.81,0.816-5.725-1.934-3.503-5.052
					c-4.924-0.1,2.842-16.04,13.064-12.679l8.254,29.327L232.066,236.842z"/>
				<path style="fill:#345870;" d="M273.39,198.318c8.653,10.801,7.487,25.584,7.487,25.584l-14.122-21.735L273.39,198.318z"/>
				<path style="fill:#F2C7C4;" d="M270.93,234.784l0.244,10.018l0.284,11.522l0.291,6.026c0.322,6.653-4.59,12.407-11.211,13.134
					l0,0c-6.671,0.732-12.746-3.894-13.814-10.52l-5.683-35.256L270.93,234.784z"/>
				<path style="fill:#345870;" d="M271.239,242.679l0.29,15.106c-12.765,1.278-21.526-7.966-23.855-14.92
					C253.161,241.014,271.239,242.679,271.239,242.679z"/>
				<path style="fill:#F2C7C4;" d="M234.567,233.971c-2.641-0.27-5.584,0.801-6.79,3.166c-1.005,1.97-0.625,4.376,0.203,6.426
					c1.068,2.645,2.889,5.035,5.341,6.49c2.453,1.456,5.56,1.895,8.223,0.875c2.664-1.02,4.748-3.59,4.901-6.438
					C246.738,239.026,239.313,234.456,234.567,233.971z"/>
				<path style="fill:#345870;" d="M240.294,242.626c-2.57-1.784-5.276-1.68-8.178-0.927c-0.43,0.112-0.334,0.847,0.125,0.787
					c2.378-0.309,5.143,1.057,6.84,2.303c0.241,0.177,0.685,0.188,0.957,0.107c0.286-0.085,0.594-0.312,0.731-0.583
					C241.095,243.665,240.865,243.023,240.294,242.626z"/>
				<g>
					<path style="fill:#F2C7C4;" d="M270.908,203.976c-2.616-2.088-5.886-3.017-9.365-3.084
						c-8.872-0.189-19.125,5.244-23.434,11.662c-6.3,9.378-4.29,20.592,1.997,28.958c2.872,3.859,6.661,7.12,10.96,9.306
						c7.53,3.843,17.235,4.674,24.041-0.341c4.916-3.609,7.57-9.77,7.945-15.868C283.69,224.303,279.213,210.611,270.908,203.976z"
						/>
					<path style="fill:#345870;" d="M274.848,222.152c0.548,1.17,0.313,2.476-0.524,2.917c-0.837,0.44-1.96-0.151-2.508-1.321
						c-0.548-1.17-0.313-2.476,0.524-2.917C273.178,220.39,274.3,220.982,274.848,222.152z"/>
					<path style="fill:#345870;" d="M261.809,227.733c0.548,1.17,0.314,2.476-0.524,2.917c-0.837,0.441-1.96-0.151-2.508-1.321
						c-0.548-1.17-0.313-2.476,0.524-2.917C260.138,225.972,261.261,226.563,261.809,227.733z"/>
					<path style="fill:#345870;" d="M272.389,227.707c-2.131-2.487-4.377-4.843-6.654-7.191c-0.221-0.228-0.603,0.058-0.394,0.312
						c1.694,2.057,3.394,4.077,5.181,6.058c0.864,0.958,1.952,1.937,2.411,3.172c0.384,1.033-0.037,2.048-0.603,2.906
						c-0.147,0.223,0.019,0.563,0.308,0.508c0.998-0.188,1.546-1.295,1.506-2.241C274.088,229.873,273.239,228.699,272.389,227.707z
						"/>
					<path style="fill:#345870;" d="M275.514,209.73c-1.27-1.755-6.875,0.497-7.148,2.658
						C268.011,215.199,277.699,212.749,275.514,209.73z"/>
					<path style="fill:#345870;" d="M255.726,218.524c-1.673-1.905-7.878,1.266-7.964,3.813
						C247.612,226.763,257.778,220.861,255.726,218.524z"/>
					<g>
						<path style="fill:#FFFFFF;" d="M264.768,237.822c0.088-0.589,5.125-1.029,5.699-0.446c0.365,0.371-0.533,2.537-2.69,2.67
							C265.997,240.156,264.666,238.506,264.768,237.822z"/>
					</g>
				</g>
				<path style="fill:#345870;" d="M240.591,212.559c4.99,7.828,6.121,25.658,0.049,23.535c-6.072-2.123-8.253-2.043-8.253-2.043
					C211.352,213.493,226.619,196.666,240.591,212.559z"/>
				<path style="fill:#345870;" d="M241.588,214.59c4.447-11.592,10.465-13.579,23.519-7.514c3.856,1.792,14.412,1.412,14.969-3
					c0.366-2.902-3.081-3.8-3.081-3.8c6.768-1.987,3.835-8.224-1.44-5.311c8.747-7.415,1.912-13.439-3.672-8.661
					c-4.303,3.682-7.715,5.241-13.81,3.638c-9.07-2.385-24.611,1.669-25.855,16.667L241.588,214.59z"/>
			</g>
			<g>
				<path style="fill:#FFFFFF;" d="M251.604,233.958l29.006-7.272c5.697-1.435,9.083-7.487,7.564-13.517v0
					c-1.519-6.03-7.369-9.755-13.066-8.32l-29.006,7.272c-5.697,1.435-9.083,7.487-7.564,13.517l0,0
					C240.058,231.668,245.908,235.393,251.604,233.958z"/>
				<g>
					<g>
						<path style="fill:#5186C7;" d="M277.82,205.456c4.277,0,8.224,3.346,9.385,7.957c1.382,5.486-1.489,10.955-6.399,12.192
							l-22.261,5.573c-0.664,0.167-1.346,0.252-2.028,0.252c-4.277,0-8.224-3.346-9.385-7.957
							c-1.382-5.486,1.489-10.956,6.399-12.193l22.26-5.573C276.456,205.54,277.138,205.456,277.82,205.456 M277.82,204.456
							c-0.754,0-1.515,0.091-2.272,0.282l-22.259,5.572c-5.455,1.374-8.645,7.377-7.126,13.407
							c1.308,5.192,5.682,8.713,10.355,8.713c0.754,0,1.515-0.092,2.272-0.282l22.259-5.573c5.455-1.374,8.645-7.377,7.126-13.407
							l0,0C286.867,207.976,282.492,204.456,277.82,204.456L277.82,204.456z"/>
					</g>
				</g>
				<path style="fill:#D9DADE;" d="M279.601,222.704l-9.262,2.32l-3.092,0.774l-1.313,0.335l-5.41,1.352l-0.295,0.076
					c-0.399,0.099-0.807,0.168-1.203,0.199c-3.418,0.265-6.63-1.961-7.498-5.4c-0.967-3.845,1.356-7.741,5.201-8.709l9.808-2.453
					l5.402-1.352l1.321-0.336l2.841-0.709c0.081-0.021,0.163-0.035,0.244-0.049c0.325-0.078,0.645-0.125,0.959-0.15
					c3.418-0.265,6.63,1.961,7.498,5.4C285.77,217.84,283.446,221.736,279.601,222.704z"/>
				<g>
					<polygon style="fill:#FFFFFF;" points="272.514,208.577 265.594,227.344 259.361,228.903 266.289,210.135 					"/>
					<path style="fill:#FFFFFF;" d="M277.592,207.316l-6.921,18.75l-3.563,0.892l6.928-18.768l3.274-0.817
						C277.404,207.348,277.498,207.333,277.592,207.316z"/>
				</g>
				<path style="fill:#E47272;" d="M277.825,217.5l-16.097,4.019c-0.984,0.246-1.98-0.353-2.226-1.337l0,0
					c-0.246-0.984,0.353-1.98,1.336-2.226l16.097-4.019c0.984-0.246,1.98,0.353,2.226,1.337l0,0
					C279.407,216.258,278.809,217.255,277.825,217.5z"/>
			</g>
			<g>
				<path style="fill:#FFFFFF;" d="M243.958,249.832l-6.992,2.309c-3.656,1.207-7.598-0.777-8.806-4.433l-2.869-8.687
					c-1.207-3.656,0.777-7.598,4.433-8.806l6.991-2.309c3.656-1.207,7.598,0.777,8.806,4.433l2.869,8.687
					C249.599,244.682,247.614,248.625,243.958,249.832z"/>
				<path style="fill:#D9DADE;" d="M231.807,234.219l0.792-0.261c2.394-0.791,4.975,0.509,5.766,2.903l1.585,4.799
					c0.79,2.394-0.509,4.975-2.902,5.766l-0.792,0.262c-2.394,0.791-4.975-0.509-5.765-2.902l-1.585-4.799
					C228.114,237.591,229.413,235.009,231.807,234.219z"/>
				<g>
					<g>
						<path style="fill:#5186C7;" d="M234.21,230.092L234.21,230.092c2.489,0,4.686,1.589,5.467,3.954l3.002,9.091
							c0.996,3.015-0.647,6.278-3.662,7.274l-2.567,0.848c-0.587,0.194-1.195,0.292-1.807,0.292c-2.488,0-4.685-1.589-5.466-3.954
							l-3.003-9.092c-0.482-1.46-0.367-3.021,0.325-4.395c0.692-1.374,1.877-2.396,3.337-2.878l2.567-0.848
							C232.991,230.19,233.599,230.092,234.21,230.092 M234.21,229.092c-0.702,0-1.417,0.11-2.12,0.343l-2.567,0.848
							c-3.544,1.17-5.468,4.992-4.298,8.536l3.003,9.092c0.938,2.841,3.579,4.64,6.416,4.64c0.702,0,1.417-0.111,2.121-0.343
							l2.567-0.848c3.544-1.171,5.468-4.993,4.298-8.537l-3.002-9.091C239.688,230.892,237.047,229.092,234.21,229.092
							L234.21,229.092z"/>
					</g>
				</g>
			</g>
		</g>
	</g>
	<g>
		<g>
			<path style="fill:#E8F0F8;" d="M155.527,325.935c-3.197,0-3.198,4.961,0,4.961C158.724,330.896,158.725,325.935,155.527,325.935z
				"/>
			<path style="fill:#E8F0F8;" d="M257.771,435.435c-3.197,0-3.198,4.961,0,4.961C260.968,440.396,260.969,435.435,257.771,435.435z
				"/>
			<path style="fill:#E8F0F8;" d="M377.166,314.721c-3.197,0-3.198,4.961,0,4.961C380.362,319.682,380.364,314.721,377.166,314.721z
				"/>
			<path style="fill:#E8F0F8;" d="M452.365,207.859c-3.197,0-3.198,4.961,0,4.961C455.561,212.82,455.563,207.859,452.365,207.859z"
				/>
			<path style="fill:#E8F0F8;" d="M71.094,253.374c-3.197,0-3.198,4.961,0,4.961C74.29,258.335,74.292,253.374,71.094,253.374z"/>
			<path style="fill:#E8F0F8;" d="M30.856,235.891c-4.475,0-4.477,6.945,0,6.945C35.331,242.837,35.333,235.891,30.856,235.891z"/>
			<path style="fill:#E8F0F8;" d="M432.575,288.662c-4.475,0-4.477,6.945,0,6.945C437.051,295.608,437.053,288.662,432.575,288.662z
				"/>
		</g>
		<g>
			<path style="fill:#E6BC7A;" d="M380.548,368.862l0.878-5.274l0.942,5.262c0.292,1.633,1.581,2.906,3.217,3.178l5.274,0.878
				l-5.262,0.943c-1.633,0.293-2.906,1.581-3.178,3.217l-0.878,5.274l-0.943-5.262c-0.293-1.633-1.581-2.906-3.218-3.178
				l-5.273-0.878l5.262-0.943C379.003,371.787,380.276,370.499,380.548,368.862z"/>
			<path style="fill:#E6BC7A;" d="M100.88,310.901l0.812-4.876l0.871,4.866c0.27,1.51,1.462,2.687,2.975,2.939l4.876,0.811
				l-4.866,0.872c-1.51,0.271-2.687,1.461-2.939,2.975l-0.812,4.876l-0.871-4.866c-0.271-1.51-1.462-2.687-2.975-2.939l-4.876-0.811
				l4.866-0.872C99.451,313.605,100.628,312.414,100.88,310.901z"/>
		</g>
	</g>
	<g>
		<linearGradient id="SVGID_1_" gradientUnits="userSpaceOnUse" x1="50.924" y1="116.1338" x2="85.079" y2="165.9889">
			<stop  offset="0" style="stop-color:#9BC3EA"/>
			<stop  offset="1" style="stop-color:#EBF4FA"/>
		</linearGradient>
		<path style="opacity:0.4;fill:url(#SVGID_1_);" d="M95.107,136.187l-8.303-4.963l-3.579,5.988
			c-1.688-0.489-3.409-0.738-5.126-0.751l-1.704-6.767l-9.38,2.362l1.704,6.768c-1.506,0.825-2.904,1.86-4.159,3.09l-5.988-3.579
			l-4.963,8.303l5.988,3.579c-0.489,1.688-0.738,3.409-0.752,5.126l-6.767,1.704l2.362,9.38l6.767-1.704
			c0.825,1.506,1.86,2.904,3.09,4.159l-3.579,5.988l8.303,4.962l3.579-5.988c1.688,0.489,3.41,0.738,5.127,0.751l1.704,6.767
			l9.38-2.362l-1.704-6.767c1.506-0.825,2.904-1.86,4.159-3.09l5.988,3.579l4.963-8.303l-5.988-3.579
			c0.489-1.688,0.738-3.41,0.752-5.126l6.767-1.704l-2.362-9.38l-6.767,1.704c-0.825-1.506-1.86-2.904-3.09-4.159L95.107,136.187z
			 M81.774,149.069c3.562,2.129,4.727,6.758,2.598,10.32c-2.129,3.562-6.759,4.728-10.32,2.599
			c-3.562-2.129-4.728-6.758-2.599-10.321C73.582,148.105,78.212,146.94,81.774,149.069z"/>
		
			<linearGradient id="SVGID_00000082344581026238636100000009449307516013821601_" gradientUnits="userSpaceOnUse" x1="347.6654" y1="44.6992" x2="366.2312" y2="84.1843">
			<stop  offset="0" style="stop-color:#9BC3EA"/>
			<stop  offset="1" style="stop-color:#EBF4FA"/>
		</linearGradient>
		<path style="opacity:0.4;fill:url(#SVGID_00000082344581026238636100000009449307516013821601_);" d="M369.977,54.132l-8.685-1.17
			l-0.844,6.263c-1.58,0.195-3.102,0.603-4.537,1.204l-3.834-5.028l-6.969,5.314l3.834,5.028c-0.959,1.224-1.755,2.585-2.361,4.057
			l-6.264-0.844l-1.17,8.685l6.264,0.844c0.195,1.58,0.602,3.102,1.203,4.537l-5.028,3.834l5.314,6.969l5.028-3.834
			c1.224,0.959,2.585,1.755,4.057,2.361l-0.844,6.264l8.685,1.17l0.844-6.263c1.58-0.195,3.102-0.602,4.537-1.203l3.834,5.028
			l6.969-5.314l-3.833-5.028c0.959-1.224,1.755-2.585,2.361-4.057l6.264,0.844l1.17-8.685l-6.264-0.844
			c-0.195-1.58-0.602-3.103-1.203-4.537l5.028-3.834l-5.314-6.968l-5.027,3.833c-1.225-0.96-2.585-1.755-4.057-2.361L369.977,54.132
			z M363.741,67.605c4.835,0.651,8.238,5.115,7.587,9.95c-0.651,4.835-5.115,8.239-9.949,7.587c-4.835-0.651-8.239-5.115-7.587-9.95
			C354.442,70.357,358.906,66.954,363.741,67.605z"/>
		<g>
			<g style="opacity:0.4;">
				
					<linearGradient id="SVGID_00000147923244761882648400000016627943762771234709_" gradientUnits="userSpaceOnUse" x1="240.3323" y1="51.713" x2="263.8573" y2="160.869">
					<stop  offset="0" style="stop-color:#9BC3EA"/>
					<stop  offset="0.1927" style="stop-color:#A2C7EB"/>
					<stop  offset="0.464" style="stop-color:#B4D2EF"/>
					<stop  offset="0.7805" style="stop-color:#D2E5F5"/>
					<stop  offset="1" style="stop-color:#EBF4FA"/>
				</linearGradient>
				<path style="fill:url(#SVGID_00000147923244761882648400000016627943762771234709_);" d="M188.179,65.041v71.606
					c16.075-2.101,33.518-3.25,51.735-3.25c27.237,0,52.728,2.561,74.562,7.034V68.814c-21.833-4.463-47.325-7.024-74.562-7.024
					C221.697,61.791,204.253,62.94,188.179,65.041z"/>
			</g>
			<g style="opacity:0.4;">
				<g>
					
						<linearGradient id="SVGID_00000170240971143852252050000006947172768870941628_" gradientUnits="userSpaceOnUse" x1="196.4602" y1="72.4926" x2="243.9242" y2="72.4926">
						<stop  offset="0" style="stop-color:#9BC3EA"/>
						<stop  offset="0.1927" style="stop-color:#A2C7EB"/>
						<stop  offset="0.464" style="stop-color:#B4D2EF"/>
						<stop  offset="0.7805" style="stop-color:#D2E5F5"/>
						<stop  offset="1" style="stop-color:#EBF4FA"/>
					</linearGradient>
					<path style="fill:url(#SVGID_00000170240971143852252050000006947172768870941628_);" d="M242.39,69.571
						c-15.32,0.088-30.297,1.024-44.602,2.783c-0.767,0.094-1.332,0.751-1.327,1.524c0,0.011,0,0.021,0,0.032
						c0.006,0.909,0.789,1.605,1.691,1.494c14.192-1.745,29.056-2.672,44.263-2.759c0.829-0.005,1.502-0.67,1.51-1.499
						c0-0.011,0-0.022,0-0.033C243.932,70.262,243.24,69.566,242.39,69.571z"/>
				</g>
				<g>
					
						<linearGradient id="SVGID_00000073700831467499438830000017375824828461909910_" gradientUnits="userSpaceOnUse" x1="196.4561" y1="79.2956" x2="243.8575" y2="79.2956">
						<stop  offset="0" style="stop-color:#9BC3EA"/>
						<stop  offset="0.1927" style="stop-color:#A2C7EB"/>
						<stop  offset="0.464" style="stop-color:#B4D2EF"/>
						<stop  offset="0.7805" style="stop-color:#D2E5F5"/>
						<stop  offset="1" style="stop-color:#EBF4FA"/>
					</linearGradient>
					<path style="fill:url(#SVGID_00000073700831467499438830000017375824828461909910_);" d="M242.323,76.374
						c-15.295,0.091-30.249,1.026-44.533,2.782c-0.764,0.094-1.334,0.747-1.334,1.517c0,0.01,0,0.021,0,0.032
						c0,0.912,0.793,1.612,1.698,1.501c14.171-1.742,29.011-2.668,44.193-2.758c0.829-0.005,1.501-0.67,1.51-1.499
						c0-0.011,0-0.022,0-0.033C243.867,77.065,243.173,76.369,242.323,76.374z"/>
				</g>
				<g>
					
						<linearGradient id="SVGID_00000135691179206192613480000009573813746949338509_" gradientUnits="userSpaceOnUse" x1="196.4626" y1="86.0979" x2="243.8114" y2="86.0979">
						<stop  offset="0" style="stop-color:#9BC3EA"/>
						<stop  offset="0.1927" style="stop-color:#A2C7EB"/>
						<stop  offset="0.464" style="stop-color:#B4D2EF"/>
						<stop  offset="0.7805" style="stop-color:#D2E5F5"/>
						<stop  offset="1" style="stop-color:#EBF4FA"/>
					</linearGradient>
					<path style="fill:url(#SVGID_00000135691179206192613480000009573813746949338509_);" d="M242.276,83.177
						c-15.277,0.092-30.213,1.027-44.48,2.78c-0.764,0.094-1.335,0.747-1.334,1.517c0,0.011,0,0.021,0,0.032
						c0.001,0.912,0.793,1.613,1.698,1.501c14.154-1.74,28.977-2.665,44.141-2.757c0.833-0.005,1.508-0.676,1.51-1.509
						c0-0.011,0-0.022,0-0.033C243.814,83.862,243.123,83.172,242.276,83.177z"/>
				</g>
				<g>
					
						<linearGradient id="SVGID_00000057867855527948260820000005775724959389616803_" gradientUnits="userSpaceOnUse" x1="196.469" y1="93.5223" x2="214.6348" y2="93.5223">
						<stop  offset="0" style="stop-color:#9BC3EA"/>
						<stop  offset="0.1927" style="stop-color:#A2C7EB"/>
						<stop  offset="0.464" style="stop-color:#B4D2EF"/>
						<stop  offset="0.7805" style="stop-color:#D2E5F5"/>
						<stop  offset="1" style="stop-color:#EBF4FA"/>
					</linearGradient>
					<path style="fill:url(#SVGID_00000057867855527948260820000005775724959389616803_);" d="M212.985,91.229
						c-5.132,0.411-10.199,0.919-15.182,1.531c-0.764,0.094-1.335,0.747-1.334,1.517c0,0.011,0,0.021,0,0.032
						c0.001,0.912,0.793,1.612,1.698,1.501c4.945-0.607,9.973-1.111,15.067-1.519c0.783-0.063,1.393-0.71,1.401-1.496
						c0-0.01,0-0.021,0-0.031C214.643,91.87,213.876,91.157,212.985,91.229z"/>
				</g>
			</g>
			<g style="opacity:0.4;">
				<g>
					
						<linearGradient id="SVGID_00000113343232376961892590000014818562791491880608_" gradientUnits="userSpaceOnUse" x1="258.1565" y1="104.5121" x2="305.6205" y2="104.5121">
						<stop  offset="0" style="stop-color:#9BC3EA"/>
						<stop  offset="0.1927" style="stop-color:#A2C7EB"/>
						<stop  offset="0.464" style="stop-color:#B4D2EF"/>
						<stop  offset="0.7805" style="stop-color:#D2E5F5"/>
						<stop  offset="1" style="stop-color:#EBF4FA"/>
					</linearGradient>
					<path style="fill:url(#SVGID_00000113343232376961892590000014818562791491880608_);" d="M259.691,101.59
						c15.32,0.089,30.297,1.024,44.602,2.783c0.767,0.094,1.332,0.751,1.327,1.524c0,0.011,0,0.021,0,0.032
						c-0.006,0.909-0.789,1.605-1.691,1.494c-14.192-1.745-29.056-2.672-44.263-2.759c-0.829-0.005-1.502-0.67-1.51-1.499
						c0-0.011,0-0.022,0-0.033C258.149,102.281,258.841,101.585,259.691,101.59z"/>
				</g>
				<g>
					
						<linearGradient id="SVGID_00000132075437057374796720000012080146540229568161_" gradientUnits="userSpaceOnUse" x1="258.2232" y1="111.3151" x2="305.6246" y2="111.3151">
						<stop  offset="0" style="stop-color:#9BC3EA"/>
						<stop  offset="0.1927" style="stop-color:#A2C7EB"/>
						<stop  offset="0.464" style="stop-color:#B4D2EF"/>
						<stop  offset="0.7805" style="stop-color:#D2E5F5"/>
						<stop  offset="1" style="stop-color:#EBF4FA"/>
					</linearGradient>
					<path style="fill:url(#SVGID_00000132075437057374796720000012080146540229568161_);" d="M259.758,108.394
						c15.295,0.091,30.249,1.026,44.533,2.782c0.764,0.094,1.334,0.747,1.334,1.517c0,0.01,0,0.021,0,0.032
						c0,0.912-0.793,1.612-1.698,1.501c-14.17-1.742-29.011-2.668-44.193-2.758c-0.829-0.005-1.501-0.671-1.51-1.499
						c0-0.011,0-0.022,0-0.033C258.214,109.085,258.908,108.389,259.758,108.394z"/>
				</g>
				<g>
					
						<linearGradient id="SVGID_00000158733102698783616850000010007291728955505034_" gradientUnits="userSpaceOnUse" x1="258.2693" y1="118.1173" x2="305.6182" y2="118.1173">
						<stop  offset="0" style="stop-color:#9BC3EA"/>
						<stop  offset="0.1927" style="stop-color:#A2C7EB"/>
						<stop  offset="0.464" style="stop-color:#B4D2EF"/>
						<stop  offset="0.7805" style="stop-color:#D2E5F5"/>
						<stop  offset="1" style="stop-color:#EBF4FA"/>
					</linearGradient>
					<path style="fill:url(#SVGID_00000158733102698783616850000010007291728955505034_);" d="M259.804,115.197
						c15.277,0.092,30.212,1.027,44.48,2.78c0.764,0.094,1.335,0.747,1.334,1.517c0,0.011,0,0.021,0,0.032
						c-0.001,0.912-0.793,1.613-1.698,1.501c-14.154-1.74-28.977-2.665-44.141-2.757c-0.833-0.005-1.508-0.676-1.51-1.509
						c0-0.011,0-0.022,0-0.033C258.267,115.882,258.957,115.191,259.804,115.197z"/>
				</g>
				<g>
					
						<linearGradient id="SVGID_00000177478462957720199390000013578620509190904465_" gradientUnits="userSpaceOnUse" x1="287.4459" y1="125.5417" x2="305.6117" y2="125.5417">
						<stop  offset="0" style="stop-color:#9BC3EA"/>
						<stop  offset="0.1927" style="stop-color:#A2C7EB"/>
						<stop  offset="0.464" style="stop-color:#B4D2EF"/>
						<stop  offset="0.7805" style="stop-color:#D2E5F5"/>
						<stop  offset="1" style="stop-color:#EBF4FA"/>
					</linearGradient>
					<path style="fill:url(#SVGID_00000177478462957720199390000013578620509190904465_);" d="M289.096,123.248
						c5.132,0.411,10.199,0.919,15.181,1.531c0.764,0.094,1.335,0.747,1.334,1.517c0,0.01,0,0.021,0,0.032
						c-0.001,0.912-0.793,1.612-1.698,1.501c-4.945-0.607-9.973-1.111-15.067-1.519c-0.783-0.063-1.393-0.71-1.401-1.496
						c0-0.01,0-0.02,0-0.031C287.437,123.889,288.204,123.177,289.096,123.248z"/>
				</g>
			</g>
		</g>
		<g>
			<g>
				<g>
					
						<linearGradient id="SVGID_00000094600504544830739720000017211264956022143641_" gradientUnits="userSpaceOnUse" x1="332.6901" y1="164.5551" x2="420.8981" y2="164.5551">
						<stop  offset="0" style="stop-color:#9BC3EA"/>
						<stop  offset="0.1927" style="stop-color:#A2C7EB"/>
						<stop  offset="0.464" style="stop-color:#B4D2EF"/>
						<stop  offset="0.7805" style="stop-color:#D2E5F5"/>
						<stop  offset="1" style="stop-color:#EBF4FA"/>
					</linearGradient>
					<path style="opacity:0.4;fill:url(#SVGID_00000094600504544830739720000017211264956022143641_);" d="M332.69,113.085v70.507
						c1.499,0.143,2.969,0.296,4.42,0.458c5.948,0.62,11.514,1.289,16.727,2.014c3.275,0.439,6.397,0.907,9.395,1.394
						c8.535,1.375,15.954,2.883,22.37,4.506c25.806,6.521,35.297,14.913,35.297,24.059v-70.517
						C420.898,131.712,399.312,119.635,332.69,113.085z"/>
				</g>
				<g>
					<g>
						
							<linearGradient id="SVGID_00000111192880392146123760000009682047613456132015_" gradientUnits="userSpaceOnUse" x1="304.863" y1="108.5679" x2="423.7399" y2="152.2976">
							<stop  offset="0" style="stop-color:#9BC3EA"/>
							<stop  offset="0.1927" style="stop-color:#A2C7EB"/>
							<stop  offset="0.464" style="stop-color:#B4D2EF"/>
							<stop  offset="0.7805" style="stop-color:#D2E5F5"/>
							<stop  offset="1" style="stop-color:#EBF4FA"/>
						</linearGradient>
						<path style="fill:url(#SVGID_00000111192880392146123760000009682047613456132015_);" d="M342.652,128.003L342.652,128.003
							c0,1.114,0.85,2.045,1.958,2.158c57.563,5.861,76.288,16.472,76.288,28.574v-4.37c0-12.071-18.631-22.66-75.855-28.521
							C343.765,125.713,342.652,126.719,342.652,128.003z"/>
					</g>
					<g>
						
							<linearGradient id="SVGID_00000093177050530594586010000006278000691049898385_" gradientUnits="userSpaceOnUse" x1="302.0119" y1="116.3186" x2="420.8888" y2="160.0483">
							<stop  offset="0" style="stop-color:#9BC3EA"/>
							<stop  offset="0.1927" style="stop-color:#A2C7EB"/>
							<stop  offset="0.464" style="stop-color:#B4D2EF"/>
							<stop  offset="0.7805" style="stop-color:#D2E5F5"/>
							<stop  offset="1" style="stop-color:#EBF4FA"/>
						</linearGradient>
						<path style="fill:url(#SVGID_00000093177050530594586010000006278000691049898385_);" d="M342.652,136.803L342.652,136.803
							c0,1.114,0.85,2.046,1.958,2.158c57.563,5.861,76.288,16.472,76.288,28.573v-4.37c0-12.071-18.631-22.659-75.855-28.521
							C343.765,134.512,342.652,135.518,342.652,136.803z"/>
					</g>
					<g>
						
							<linearGradient id="SVGID_00000132066529157261555060000001981972681584837566_" gradientUnits="userSpaceOnUse" x1="299.1607" y1="124.0693" x2="418.0375" y2="167.799">
							<stop  offset="0" style="stop-color:#9BC3EA"/>
							<stop  offset="0.1927" style="stop-color:#A2C7EB"/>
							<stop  offset="0.464" style="stop-color:#B4D2EF"/>
							<stop  offset="0.7805" style="stop-color:#D2E5F5"/>
							<stop  offset="1" style="stop-color:#EBF4FA"/>
						</linearGradient>
						<path style="fill:url(#SVGID_00000132066529157261555060000001981972681584837566_);" d="M342.652,145.602L342.652,145.602
							c0,1.114,0.85,2.045,1.958,2.158c57.563,5.861,76.288,16.472,76.288,28.573v-4.37c0-12.071-18.631-22.659-75.855-28.521
							C343.765,143.312,342.652,144.318,342.652,145.602z"/>
					</g>
					<g>
						
							<linearGradient id="SVGID_00000122707794988240838090000014811201898055405709_" gradientUnits="userSpaceOnUse" x1="296.3095" y1="131.82" x2="415.1864" y2="175.5497">
							<stop  offset="0" style="stop-color:#9BC3EA"/>
							<stop  offset="0.1927" style="stop-color:#A2C7EB"/>
							<stop  offset="0.464" style="stop-color:#B4D2EF"/>
							<stop  offset="0.7805" style="stop-color:#D2E5F5"/>
							<stop  offset="1" style="stop-color:#EBF4FA"/>
						</linearGradient>
						<path style="fill:url(#SVGID_00000122707794988240838090000014811201898055405709_);" d="M342.652,154.402L342.652,154.402
							c0,1.114,0.85,2.046,1.958,2.158c57.563,5.861,76.288,16.472,76.288,28.574v-4.37c0-12.071-18.631-22.659-75.855-28.521
							C343.765,152.111,342.652,153.117,342.652,154.402z"/>
					</g>
					<g>
						
							<linearGradient id="SVGID_00000108274484703765647390000010769628588962725805_" gradientUnits="userSpaceOnUse" x1="293.4584" y1="139.5707" x2="412.3352" y2="183.3004">
							<stop  offset="0" style="stop-color:#9BC3EA"/>
							<stop  offset="0.1927" style="stop-color:#A2C7EB"/>
							<stop  offset="0.464" style="stop-color:#B4D2EF"/>
							<stop  offset="0.7805" style="stop-color:#D2E5F5"/>
							<stop  offset="1" style="stop-color:#EBF4FA"/>
						</linearGradient>
						<path style="fill:url(#SVGID_00000108274484703765647390000010769628588962725805_);" d="M342.652,163.201L342.652,163.201
							c0,1.114,0.85,2.046,1.958,2.158c57.563,5.861,76.288,16.472,76.288,28.574v-4.37c0-12.071-18.631-22.66-75.855-28.521
							C343.765,160.911,342.652,161.917,342.652,163.201z"/>
					</g>
					<g>
						
							<linearGradient id="SVGID_00000166641771492867019750000014160147592496549534_" gradientUnits="userSpaceOnUse" x1="290.6069" y1="147.322" x2="409.4838" y2="191.0517">
							<stop  offset="0" style="stop-color:#9BC3EA"/>
							<stop  offset="0.1927" style="stop-color:#A2C7EB"/>
							<stop  offset="0.464" style="stop-color:#B4D2EF"/>
							<stop  offset="0.7805" style="stop-color:#D2E5F5"/>
							<stop  offset="1" style="stop-color:#EBF4FA"/>
						</linearGradient>
						<path style="fill:url(#SVGID_00000166641771492867019750000014160147592496549534_);" d="M386.022,178.845
							c-0.016-1.376,1.278-2.394,2.615-2.064c23.61,5.822,32.262,13.357,32.262,21.581v4.37c0-8.339-8.892-15.97-33.255-21.827
							c-0.937-0.225-1.609-1.053-1.621-2.017C386.022,178.874,386.022,178.86,386.022,178.845z"/>
					</g>
				</g>
				<path style="fill:#9BC3EA;" d="M401.711,166.982v70.517c12.099-6.053,19.186-13.391,19.186-21.3v-70.517
					C420.897,153.583,413.81,160.92,401.711,166.982z"/>
			</g>
		</g>
		<g>
			<g>
				<g>
					<path style="fill:#5186C7;" d="M325.744,72.088c-0.271,1.026-0.604,2.066-1.01,3.129c-3.675,9.669-11.334,14.715-19.596,15.95
						c-15.326,2.323-32.739-8.411-30.735-26.961c0.192-1.782,0.584-3.535,1.172-5.218c2.33-6.845,7.628-12.686,14.329-15.458
						c3.465-1.425,7.092-2.107,10.653-2.117C316.136,41.382,330.57,54.054,325.744,72.088z"/>
					<path style="fill:#69A0E1;" d="M300.556,41.415c-0.07,0.206-0.131,0.412-0.181,0.62c-0.554,2.172-0.452,4.367,0.4,6.441
						c0.753,1.843,2.106,3.329,3.159,4.998c0.624,0.971,1.45,2.477,0.648,3.552c-0.743,0.99-2.531,1.799-3.521,2.836
						c-2.869,3-2.72,7.536-0.321,10.762c2.632,3.542,7.347,4.361,11.487,3.911c4.017-0.431,7.777-2.395,11.838-2.549
						c0.538-0.019,1.112,0.006,1.679,0.101C330.57,54.054,316.136,41.382,300.556,41.415z M299.51,80.63
						c-1.299-0.692-2.648-1.277-3.971-1.931c-0.493-0.24-0.801-0.401-1.382-0.771c-0.229-0.144-0.457-0.297-0.674-0.46
						c-0.113-0.082-0.485-0.421-0.544-0.447c-0.009-0.011-0.009-0.011-0.009-0.011c-0.709-0.726-1.072-1.358-1.036-2.578
						c0.05-1.462,0.712-2.875,1.245-4.199c1.194-2.939,2.414-6.25,0.932-9.337c-1.482-3.087-4.987-4.497-8.266-4.48
						c-3.633,0.023-6.786,1.772-10.232,2.572c-0.587,1.683-0.979,3.436-1.172,5.218c-2.004,18.549,15.409,29.284,30.735,26.961
						c0.175-1.288,0.251-2.596-0.01-3.875C304.508,84.178,302.224,82.066,299.51,80.63z"/>
				</g>
				<path style="fill:#3A6885;" d="M326.025,70.952c-0.087,0.376-0.184,0.751-0.282,1.136c-0.271,1.026-0.604,2.066-1.01,3.129
					c-3.675,9.669-11.334,14.715-19.596,15.95c-15.326,2.323-32.739-8.411-30.735-26.961c0.192-1.782,0.584-3.535,1.172-5.218
					c0.62-1.811,1.447-3.562,2.464-5.194c-0.119,0.605-0.209,1.224-0.279,1.844c-2.004,18.549,15.409,29.284,30.735,26.961
					C315.432,81.561,321.941,77.84,326.025,70.952z"/>
				<path style="fill:#5186C7;" d="M339.792,48.431c-0.326,1.546-1.344,2.874-2.293,4.109c-3.085,4.053-6.816,7.519-10.892,10.564
					c-3.985,2.979-8.276,5.543-12.625,7.872c-9.965,5.335-20.385,9.855-31.058,13.57c-0.196,0.065-0.391,0.14-0.587,0.205
					c-2.396,0.833-4.805,1.619-7.228,2.359c-2.759,0.846-5.719,2.045-8.638,1.829c-2.523-0.193-4.995-1.879-5.461-4.47
					c-0.481-2.647,1.264-4.884,3.023-6.631c3.2-3.17,6.622-6.119,10.291-8.754c0.095,1.202,0.283,2.367,0.535,3.488
					c-3.097,2.594-6.1,5.382-8.695,8.441c-0.975,1.151-2.157,3.021-0.115,3.746c1.984,0.72,4.611-0.536,6.511-1.106
					c2.226-0.684,4.45-1.396,6.651-2.145c2.603-0.88,5.191-1.816,7.757-2.789c9.146-3.496,18.159-7.519,26.689-12.344
					c4.192-2.373,8.273-5.024,11.98-8.104c3.045-2.523,5.844-5.34,8.256-8.519c0.542-0.72,1.047-1.426,1.39-2.234
					c-0.009,0.001-0.009,0.001-0.019,0.002c-0.233-0.028-0.404-0.118-0.744-0.156c-2.111-0.2-4.711,0.382-6.878,0.753
					c-2.404,0.402-4.8,0.908-7.166,1.528c-1.186-1.27-2.534-2.401-3.984-3.389c4.536-1.615,9.223-2.716,14.046-3.251
					c2.549-0.29,5.686-0.765,7.822,1.037C339.627,45.113,340.132,46.827,339.792,48.431z"/>
			</g>
			<path style="fill:#E47272;" d="M305.856,33c0.726,1.804,2.832,3.082,4.91,2.948c2.078-0.134,3.928-1.694,4.209-3.584
				c0.335-2.257-2.068-5.498-4.74-5.395C306.99,27.093,304.715,30.166,305.856,33z"/>
			<path style="fill:#FFFFFF;" d="M275.171,109.661c2.498,1.885,6.157,2.07,8.832,0.445c6.48-3.935,3.441-14-3.799-14.552
				C272.68,94.981,269.255,105.197,275.171,109.661z"/>
		</g>
		<g>
			<polygon style="fill:#3A6885;" points="376.779,102.629 395.602,108.712 391.492,89.263 372.595,83.097 			"/>
			<polygon style="fill:#5186C7;" points="395.602,108.711 410.355,95.534 406.171,76.002 391.492,89.263 			"/>
			<polygon style="fill:#FFFFFF;" points="372.595,83.097 391.492,89.262 406.171,76.002 387.273,69.837 			"/>
			<g>
				
					<line style="fill:none;stroke:#5186C7;stroke-width:2;stroke-miterlimit:10;" x1="408.214" y1="113.096" x2="408.214" y2="92.008"/>
				
					<line style="fill:none;stroke:#5186C7;stroke-width:2;stroke-miterlimit:10;" x1="408.214" y1="115.275" x2="408.214" y2="118.302"/>
			</g>
			
				<line style="fill:none;stroke:#5186C7;stroke-width:2;stroke-miterlimit:10;" x1="403.127" y1="108.909" x2="403.127" y2="98.587"/>
		</g>
		<g>
			<g>
				<g>
					
						<linearGradient id="SVGID_00000026123989326137764440000017164655783328858259_" gradientUnits="userSpaceOnUse" x1="353.1381" y1="216.4548" x2="372.3238" y2="216.4548">
						<stop  offset="0" style="stop-color:#9BC3EA"/>
						<stop  offset="0.1927" style="stop-color:#A2C7EB"/>
						<stop  offset="0.464" style="stop-color:#B4D2EF"/>
						<stop  offset="0.7805" style="stop-color:#D2E5F5"/>
						<stop  offset="1" style="stop-color:#EBF4FA"/>
					</linearGradient>
					<path style="opacity:0.4;fill:url(#SVGID_00000026123989326137764440000017164655783328858259_);" d="M353.138,218.701v-25.792
						c12.099,6.053,19.186,13.391,19.186,21.3v25.792C372.324,232.1,365.237,224.762,353.138,218.701z"/>
					<path style="fill:#9BC3EA;" d="M337.028,238.442c-4.749,1.201-10.05,2.339-15.944,3.408c0.026,8.593,0.052,17.185,0.077,25.778
						c37.877-6.868,51.163-16.631,51.163-27.453v-25.792C372.325,223.529,362.835,231.921,337.028,238.442z"/>
				</g>
			</g>
			
				<linearGradient id="SVGID_00000124128178726344231670000008192232366734176948_" gradientUnits="userSpaceOnUse" x1="353.254" y1="214.3252" x2="372.3238" y2="214.3252">
				<stop  offset="0" style="stop-color:#9BC3EA"/>
				<stop  offset="0.1927" style="stop-color:#A2C7EB"/>
				<stop  offset="0.464" style="stop-color:#B4D2EF"/>
				<stop  offset="0.7805" style="stop-color:#D2E5F5"/>
				<stop  offset="1" style="stop-color:#EBF4FA"/>
			</linearGradient>
			<path style="opacity:0.4;fill:url(#SVGID_00000124128178726344231670000008192232366734176948_);" d="M358.694,205.696
				c0,0.019,0.001,0.038,0.001,0.056c0.01,0.683,0.369,1.312,0.942,1.684c8.089,5.254,12.687,11.241,12.687,17.596v-5.008
				c0-5.727-3.727-11.152-10.374-16.008C360.587,203.02,358.668,204.009,358.694,205.696z"/>
			
				<linearGradient id="SVGID_00000055699437419989753920000014449512185568602244_" gradientUnits="userSpaceOnUse" x1="353.1756" y1="222.8636" x2="372.3238" y2="222.8636">
				<stop  offset="0" style="stop-color:#9BC3EA"/>
				<stop  offset="0.1927" style="stop-color:#A2C7EB"/>
				<stop  offset="0.464" style="stop-color:#B4D2EF"/>
				<stop  offset="0.7805" style="stop-color:#D2E5F5"/>
				<stop  offset="1" style="stop-color:#EBF4FA"/>
			</linearGradient>
			<path style="opacity:0.4;fill:url(#SVGID_00000055699437419989753920000014449512185568602244_);" d="M358.766,214.242
				c0,0.017,0,0.033,0,0.05c0.005,0.689,0.365,1.325,0.943,1.701c8.046,5.243,12.616,11.214,12.616,17.55v-5.008
				c0-5.705-3.698-11.11-10.296-15.952C360.672,211.589,358.755,212.561,358.766,214.242z"/>
		</g>
		<g>
			<g>
				<path style="fill:#5186C7;" d="M361.457,209.448c0,0,14.463-10.495,33.834-18.994l-29.855-44.419l-26.858,23.982
					c0,0-22.813,11.81-41.716,4.968l-2.122,6.764l28.595,41.449C323.336,223.197,346.288,222.877,361.457,209.448z"/>
				<path style="fill:#F5F9FD;" d="M337.272,167.703l21.972,38.938c0,0-17.04,14.088-34.921,10.388l-26.821-44.086
					C321.878,178.275,322.166,159.687,337.272,167.703z"/>
				<path style="fill:#F5F9FD;" d="M337.272,167.703c-1.048-12.509,21.972-25.204,21.972-25.204l29.792,45.195
					c0,0-17.943,0.825-29.792,18.948L337.272,167.703z"/>
				<g>
					<line style="fill:none;stroke:#5186C7;stroke-miterlimit:10;" x1="337.272" y1="167.703" x2="359.245" y2="206.641"/>
				</g>
			</g>
			<path style="fill:#CFE1EF;" d="M321.151,181.481c-1.068-1.995-2.102-4.034-3.361-5.914c-0.14-0.209-0.444-0.408-0.711-0.3
				c-2.529,1.024-5.189,1.669-7.795,2.476c-0.271-0.058-0.567,0.07-0.747,0.292c-0.395,0.336-0.272,1.008,0.143,1.21
				c0.618,1.196,1.236,2.392,1.854,3.588c0.335,0.648,0.659,1.307,1.022,1.94c0.293,0.511,0.685,0.992,1.285,1.126
				c0.634,0.142,1.313-0.151,1.88-0.401c0.679-0.299,1.342-0.635,2.009-0.959c1.369-0.666,2.741-1.321,4.121-1.964
				C321.249,182.387,321.342,181.838,321.151,181.481z M316.602,182.964c-0.562,0.284-1.125,0.568-1.687,0.852
				c-0.298,0.15-0.592,0.305-0.885,0.465c-0.203,0.11-0.506,0.337-0.741,0.295c-0.413-0.074-0.641-0.858-0.797-1.168
				c-0.288-0.572-0.589-1.138-0.885-1.705c-0.484-0.927-0.969-1.855-1.454-2.782c2.237-0.79,4.449-1.66,6.737-2.282
				c0.73,1.674,1.601,3.292,2.471,4.901C318.443,182.019,317.526,182.498,316.602,182.964z"/>
			<path style="fill:#CFE1EF;" d="M333.673,169.314c-4.288-1.368-7.499,2.947-11.304,3.903c-0.682,0.171-0.405,1.197,0.276,1.051
				c1.887-0.404,3.493-1.475,5.156-2.397c1.692-0.937,3.541-1.653,5.461-0.989C334.242,171.221,334.671,169.632,333.673,169.314z"/>
			<path style="fill:#CFE1EF;" d="M334.923,173.394c-0.877-0.088-1.83,0.049-2.699,0.175c-0.904,0.131-1.793,0.357-2.651,0.669
				c-1.723,0.628-3.288,1.564-4.645,2.798c-0.632,0.575,0.29,1.465,0.929,0.929c1.242-1.041,2.698-1.843,4.243-2.333
				c0.756-0.24,1.536-0.42,2.324-0.514c0.846-0.101,1.654-0.027,2.499-0.008c0.464,0.01,0.858-0.402,0.858-0.858
				C335.781,173.751,335.386,173.441,334.923,173.394z"/>
			<path style="fill:#CFE1EF;" d="M337.939,179.11c-8.407,0.819-14.612,7.342-22.631,9.311c-0.833,0.205-0.493,1.449,0.335,1.28
				c3.988-0.817,7.565-2.778,11.125-4.668c3.505-1.861,7.148-3.731,11.171-4.057C339.135,180.879,339.13,178.994,337.939,179.11z"/>
			<path style="fill:#CFE1EF;" d="M325.637,189.113c-0.668,0.158-1.272,0.506-1.897,0.779c-0.549,0.24-1.11,0.453-1.68,0.638
				c-1.205,0.39-2.469,0.676-3.728,0.829c-0.364,0.044-0.679,0.281-0.679,0.679c0,0.355,0.311,0.694,0.679,0.679
				c1.402-0.059,2.777-0.279,4.123-0.678c0.664-0.197,1.313-0.434,1.949-0.706c0.671-0.287,1.346-0.591,1.864-1.119
				C326.73,189.742,326.268,188.964,325.637,189.113z"/>
			<path style="fill:#CFE1EF;" d="M348.77,195.338c-1.007-3.44-3.369-7.621-7.486-7.445c-2.38,0.102-4.451,1.478-6.375,2.746
				c-2.005,1.321-4.081,2.532-6.225,3.615c-2.461,1.244-4.978,2.393-7.555,3.378c-0.389,0.149-0.483,0.547-0.371,0.846
				c-0.578-0.018-1.133,0.522-0.765,1.195c0.991,1.815,2.186,3.535,3.294,5.281c0.245,0.386,0.757,0.57,1.172,0.323
				c3.613-2.144,7.404-3.984,11.336-5.466c1.96-0.739,3.952-1.395,5.968-1.964c2.008-0.567,4.077-1.14,6.152-1.402
				C348.454,196.378,348.946,195.94,348.77,195.338z M341.342,196.247c-2.057,0.576-4.09,1.241-6.089,1.993
				c-3.771,1.419-7.418,3.145-10.917,5.14c-0.933-1.527-1.847-3.081-2.887-4.532c-0.011-0.015-0.025-0.021-0.036-0.035
				c0.009-0.002,0.017,0,0.026-0.003c4.281-1.26,8.348-3.045,12.2-5.297c2.977-1.741,7.47-5.834,10.766-2.56
				c1.121,1.113,1.717,2.55,2.301,3.984C344.915,195.366,343.116,195.75,341.342,196.247z"/>
			<path style="fill:#CFE1EF;" d="M347.577,198.037c-1.815,0.511-3.594,1.311-5.367,1.959c-1.789,0.654-3.577,1.308-5.366,1.962
				c-3.581,1.311-7.146,2.66-10.701,4.039c-0.84,0.326-0.518,1.685,0.362,1.381c3.642-1.255,7.273-2.541,10.89-3.867
				c1.788-0.656,3.576-1.311,5.365-1.967c1.797-0.659,3.689-1.21,5.43-2.002C349.042,199.154,348.456,197.79,347.577,198.037z"/>
			<path style="fill:#CFE1EF;" d="M337.112,206.295c-0.447-0.037-0.875,0.213-1.265,0.408c-0.322,0.161-0.646,0.316-0.974,0.465
				c-0.659,0.298-1.328,0.571-2.009,0.814c-1.43,0.51-2.9,0.896-4.394,1.163c-0.398,0.071-0.631,0.545-0.535,0.915
				c0.113,0.43,0.513,0.59,0.915,0.535c1.555-0.216,3.089-0.56,4.585-1.04c0.757-0.243,1.5-0.523,2.233-0.831
				c0.702-0.295,1.71-0.592,2.106-1.289C338.076,206.904,337.67,206.34,337.112,206.295z"/>
			<path style="fill:#CFE1EF;" d="M356.16,150.616c-0.873,0.023-1.798,0.637-2.558,1.035c-0.766,0.402-1.513,0.838-2.24,1.306
				c-1.543,0.994-3.002,2.128-4.345,3.378c-2.659,2.476-4.849,5.455-6.447,8.716c-0.386,0.788,0.788,1.472,1.196,0.679
				c1.594-3.093,3.723-5.855,6.28-8.213c1.274-1.174,2.649-2.23,4.113-3.156c0.701-0.443,1.42-0.855,2.155-1.237
				c0.749-0.388,1.764-0.657,2.368-1.247C357.136,151.439,356.803,150.599,356.16,150.616z"/>
			<path style="fill:#CFE1EF;" d="M348.323,161.926c-0.172-0.172-0.494-0.239-0.705-0.096c-0.539,0.368-0.939,0.829-1.358,1.323
				c-0.414,0.488-0.81,0.989-1.211,1.487c-0.791,0.982-1.582,1.964-2.372,2.945c-0.226,0.28-0.274,0.668,0,0.942
				c0.24,0.24,0.706,0.274,0.941,0c0.82-0.952,1.641-1.905,2.461-2.857c0.404-0.469,0.814-0.934,1.206-1.413
				c0.422-0.515,0.862-1.013,1.134-1.626C348.525,162.391,348.519,162.122,348.323,161.926z"/>
			<path style="fill:#CFE1EF;" d="M368.445,164.505c-1.047-1.871-2.28-3.917-4.339-4.796c-2.345-1.001-4.799-0.025-6.888,1.132
				c-2.126,1.178-4.13,2.587-5.987,4.154c-1.882,1.589-3.724,3.413-5.087,5.477c-0.032,0.049-0.044,0.098-0.059,0.147
				c-0.596-0.016-1.205,0.656-0.807,1.268c1.292,1.988,2.9,3.81,4.349,5.687c0.304,0.394,0.91,0.271,1.231,0
				c5.351-4.531,11.14-8.52,17.271-11.922C368.528,165.43,368.665,164.899,368.445,164.505z M346.965,171.277
				c0.042-0.025,0.086-0.046,0.124-0.085c1.546-1.581,3.021-3.191,4.701-4.638c1.647-1.42,3.424-2.683,5.302-3.78
				c1.774-1.038,4.099-2.467,6.219-1.646c1.518,0.587,2.484,2.074,3.269,3.48c-5.718,3.214-11.13,6.939-16.185,11.118
				C349.277,174.23,348.184,172.686,346.965,171.277z"/>
			<path style="fill:#CFE1EF;" d="M369.968,167.827c-0.583-0.258-1.049,0.018-1.597,0.251c-0.478,0.203-0.949,0.422-1.411,0.658
				c-0.949,0.483-1.864,1.033-2.737,1.645c-1.745,1.222-3.293,2.663-4.627,4.324c-0.511,0.637,0.358,1.553,0.917,0.917
				c1.308-1.489,2.807-2.828,4.449-3.94c0.817-0.553,1.67-1.053,2.552-1.496c0.441-0.221,0.89-0.429,1.345-0.62
				c0.477-0.2,1.127-0.302,1.365-0.806C370.371,168.451,370.326,167.986,369.968,167.827z"/>
			<path style="fill:#CFE1EF;" d="M372.231,171.34c-0.179-0.235-0.437-0.296-0.719-0.253c-0.227,0.035-0.426,0.194-0.618,0.313
				c-0.146,0.09-0.292,0.18-0.438,0.271c-0.302,0.189-0.6,0.384-0.899,0.576c-0.611,0.392-1.22,0.782-1.811,1.205
				c-0.252,0.181-0.408,0.52-0.224,0.812c0.179,0.284,0.515,0.375,0.812,0.224c0.657-0.334,1.292-0.701,1.93-1.068
				c0.319-0.183,0.639-0.363,0.955-0.552c0.147-0.088,0.295-0.176,0.442-0.264c0.084-0.05,0.17-0.098,0.253-0.151
				c0.161-0.102,0.26-0.207,0.371-0.36C372.444,171.879,372.378,171.534,372.231,171.34z"/>
			<path style="fill:#CFE1EF;" d="M373.538,175.736c-0.855,0.026-1.754,0.535-2.535,0.866c-0.773,0.328-1.536,0.681-2.287,1.058
				c-1.605,0.806-3.154,1.723-4.634,2.739c-2.926,2.009-5.553,4.421-7.831,7.141c-0.529,0.631,0.359,1.548,0.917,0.917
				c2.261-2.559,4.841-4.814,7.672-6.723c1.394-0.94,2.847-1.791,4.349-2.546c0.751-0.378,1.514-0.731,2.288-1.06
				c0.76-0.323,1.771-0.513,2.426-1.009C374.439,176.714,374.358,175.71,373.538,175.736z"/>
			<path style="fill:#CFE1EF;" d="M358.454,177.786c-0.891-1.124-2.405-1.549-3.754-1.063c-1.639,0.589-2.602,2.119-2.944,3.767
				c-0.055,0.268,0.054,0.475,0.223,0.6c0.467,1.406,1.723,2.361,3.192,2.535c1.431,0.17,2.813-0.589,3.57-1.79
				C359.548,180.555,359.376,178.949,358.454,177.786z M357.523,179.997c0,0.011-0.005,0.066-0.007,0.1
				c-0.006,0.033-0.015,0.087-0.018,0.098c-0.012,0.055-0.026,0.11-0.041,0.164c-0.016,0.054-0.033,0.107-0.052,0.161
				c-0.005,0.015-0.004,0.016-0.004,0.018c-0.005,0.008-0.01,0.014-0.023,0.038c-0.063,0.111-0.119,0.222-0.19,0.328
				c-0.008,0.011-0.04,0.053-0.06,0.079c-0.021,0.024-0.046,0.052-0.053,0.06c-0.076,0.084-0.157,0.163-0.242,0.239
				c-0.009,0.008-0.04,0.034-0.065,0.055c-0.038,0.025-0.128,0.089-0.145,0.1c-0.095,0.061-0.193,0.118-0.295,0.168
				c-0.01,0.005-0.051,0.023-0.081,0.038c-0.031,0.011-0.075,0.027-0.086,0.031c-0.108,0.035-0.217,0.059-0.328,0.084
				c-0.014,0.003-0.01,0.003-0.017,0.005c-0.086,0.007-0.171,0.011-0.257,0.01c-0.058,0-0.115-0.004-0.173-0.007
				c-0.021-0.001-0.024,0-0.024,0.002c-0.01-0.002-0.013-0.003-0.037-0.008c-0.142-0.029-0.279-0.066-0.418-0.107
				c-0.011-0.003-0.035-0.012-0.056-0.02c-0.066-0.029-0.131-0.06-0.194-0.093c-0.115-0.061-0.228-0.127-0.337-0.198
				c-0.009-0.006-0.041-0.027-0.068-0.046c-0.031-0.026-0.103-0.082-0.114-0.092c-0.109-0.096-0.208-0.201-0.305-0.309
				c-0.038-0.043-0.076-0.087-0.113-0.13c-0.007-0.008-0.074-0.098-0.092-0.12c-0.072-0.109-0.139-0.219-0.199-0.335
				c-0.065-0.126-0.154-0.211-0.252-0.277c0.306-0.699,0.767-1.325,1.454-1.696c0.416-0.225,0.898-0.35,1.37-0.279
				c0.051,0.008,0.172,0.04,0.249,0.063c0.162,0.049,0.113,0.033,0.238,0.1c0.243,0.129,0.263,0.14,0.466,0.347
				c0.04,0.04,0.076,0.083,0.115,0.124c0.023,0.025,0.026,0.026,0.037,0.037c0.002,0.004-0.002,0.002,0.011,0.02
				c0.065,0.092,0.125,0.189,0.178,0.289c0.027,0.05,0.052,0.101,0.076,0.152c0.008,0.016,0.007,0.014,0.011,0.02
				c0.002,0.006,0,0.003,0.004,0.012c0.043,0.119,0.079,0.241,0.106,0.366c-0.003-0.012,0.015,0.109,0.023,0.15
				c0.002,0.034,0.004,0.083,0.005,0.092C357.526,179.884,357.526,179.941,357.523,179.997z"/>
			<path style="fill:#CFE1EF;" d="M363.506,186.812c-0.202-0.265-0.662-0.425-0.96-0.202c-1.39,1.04-2.645,2.264-3.935,3.423
				c-0.275,0.247-0.271,0.75,0,0.997c0.305,0.279,0.691,0.252,0.997,0c0.647-0.532,1.295-1.064,1.942-1.596
				c0.647-0.531,1.298-1.055,1.895-1.643C363.711,187.53,363.728,187.103,363.506,186.812z"/>
			<path style="fill:#CFE1EF;" d="M377.835,181.971c-1.619,0.533-3.195,1.338-4.7,2.131c-1.56,0.822-3.075,1.732-4.528,2.73
				c-2.873,1.974-5.488,4.296-7.817,6.886c-0.569,0.633,0.337,1.558,0.942,0.941c2.367-2.416,4.985-4.564,7.801-6.436
				c1.371-0.911,2.788-1.75,4.249-2.51c1.537-0.799,3.138-1.417,4.71-2.134C379.39,183.169,378.774,181.661,377.835,181.971z"/>
		</g>
		<g>
			<g>
				<g>
					
						<linearGradient id="SVGID_00000078761973846344614470000015314142087124312242_" gradientUnits="userSpaceOnUse" x1="88.9086" y1="134.7804" x2="177.1166" y2="134.7804">
						<stop  offset="0" style="stop-color:#9BC3EA"/>
						<stop  offset="0.1927" style="stop-color:#A2C7EB"/>
						<stop  offset="0.464" style="stop-color:#B4D2EF"/>
						<stop  offset="0.7805" style="stop-color:#D2E5F5"/>
						<stop  offset="1" style="stop-color:#EBF4FA"/>
					</linearGradient>
					<path style="opacity:0.4;fill:url(#SVGID_00000078761973846344614470000015314142087124312242_);" d="M177.117,83.311v70.507
						c-1.499,0.143-2.969,0.296-4.42,0.458c-5.948,0.621-11.514,1.289-16.727,2.015c-3.275,0.439-6.397,0.907-9.395,1.394
						c-8.535,1.375-15.954,2.883-22.369,4.506c-25.806,6.521-35.297,14.913-35.297,24.059v-70.517
						C88.909,101.938,110.495,89.86,177.117,83.311z"/>
				</g>
				<g>
					<g>
						
							<linearGradient id="SVGID_00000007429483194353448730000014184422146678752399_" gradientUnits="userSpaceOnUse" x1="70.1064" y1="127.3332" x2="180.2015" y2="90.8343">
							<stop  offset="0" style="stop-color:#9BC3EA"/>
							<stop  offset="0.1927" style="stop-color:#A2C7EB"/>
							<stop  offset="0.464" style="stop-color:#B4D2EF"/>
							<stop  offset="0.7805" style="stop-color:#D2E5F5"/>
							<stop  offset="1" style="stop-color:#EBF4FA"/>
						</linearGradient>
						<path style="fill:url(#SVGID_00000007429483194353448730000014184422146678752399_);" d="M167.155,98.229L167.155,98.229
							c0,1.114-0.85,2.045-1.958,2.158c-57.563,5.861-76.288,16.472-76.288,28.573v-4.37c0-12.071,18.631-22.66,75.856-28.521
							C166.042,95.938,167.155,96.944,167.155,98.229z"/>
					</g>
					<g>
						
							<linearGradient id="SVGID_00000180350515916585498330000005502792065504666795_" gradientUnits="userSpaceOnUse" x1="72.7348" y1="135.2614" x2="182.8298" y2="98.7625">
							<stop  offset="0" style="stop-color:#9BC3EA"/>
							<stop  offset="0.1927" style="stop-color:#A2C7EB"/>
							<stop  offset="0.464" style="stop-color:#B4D2EF"/>
							<stop  offset="0.7805" style="stop-color:#D2E5F5"/>
							<stop  offset="1" style="stop-color:#EBF4FA"/>
						</linearGradient>
						<path style="fill:url(#SVGID_00000180350515916585498330000005502792065504666795_);" d="M167.155,107.028L167.155,107.028
							c0,1.114-0.85,2.046-1.958,2.158c-57.563,5.861-76.288,16.472-76.288,28.573v-4.37c0-12.071,18.631-22.659,75.856-28.521
							C166.042,104.738,167.155,105.744,167.155,107.028z"/>
					</g>
					<g>
						
							<linearGradient id="SVGID_00000006709107056059651440000009169165426868412054_" gradientUnits="userSpaceOnUse" x1="75.3631" y1="143.1895" x2="185.4582" y2="106.6906">
							<stop  offset="0" style="stop-color:#9BC3EA"/>
							<stop  offset="0.1927" style="stop-color:#A2C7EB"/>
							<stop  offset="0.464" style="stop-color:#B4D2EF"/>
							<stop  offset="0.7805" style="stop-color:#D2E5F5"/>
							<stop  offset="1" style="stop-color:#EBF4FA"/>
						</linearGradient>
						<path style="fill:url(#SVGID_00000006709107056059651440000009169165426868412054_);" d="M167.155,115.828L167.155,115.828
							c0,1.114-0.85,2.045-1.958,2.158c-57.563,5.861-76.288,16.472-76.288,28.573v-4.37c0-12.071,18.631-22.659,75.856-28.521
							C166.042,113.537,167.155,114.543,167.155,115.828z"/>
					</g>
					<g>
						
							<linearGradient id="SVGID_00000072255994467973343300000009678884449161590461_" gradientUnits="userSpaceOnUse" x1="77.9915" y1="151.1178" x2="188.0865" y2="114.6188">
							<stop  offset="0" style="stop-color:#9BC3EA"/>
							<stop  offset="0.1927" style="stop-color:#A2C7EB"/>
							<stop  offset="0.464" style="stop-color:#B4D2EF"/>
							<stop  offset="0.7805" style="stop-color:#D2E5F5"/>
							<stop  offset="1" style="stop-color:#EBF4FA"/>
						</linearGradient>
						<path style="fill:url(#SVGID_00000072255994467973343300000009678884449161590461_);" d="M167.155,124.627L167.155,124.627
							c0,1.114-0.85,2.045-1.958,2.158c-57.563,5.861-76.288,16.472-76.288,28.574v-4.37c0-12.071,18.631-22.659,75.856-28.521
							C166.042,122.337,167.155,123.343,167.155,124.627z"/>
					</g>
					<g>
						
							<linearGradient id="SVGID_00000023245204893212215320000013526562315366750373_" gradientUnits="userSpaceOnUse" x1="80.6198" y1="159.0459" x2="190.7149" y2="122.547">
							<stop  offset="0" style="stop-color:#9BC3EA"/>
							<stop  offset="0.1927" style="stop-color:#A2C7EB"/>
							<stop  offset="0.464" style="stop-color:#B4D2EF"/>
							<stop  offset="0.7805" style="stop-color:#D2E5F5"/>
							<stop  offset="1" style="stop-color:#EBF4FA"/>
						</linearGradient>
						<path style="fill:url(#SVGID_00000023245204893212215320000013526562315366750373_);" d="M167.155,133.427L167.155,133.427
							c0,1.114-0.85,2.045-1.958,2.158c-57.563,5.861-76.288,16.472-76.288,28.574v-4.37c0-12.071,18.631-22.66,75.856-28.521
							C166.042,131.136,167.155,132.142,167.155,133.427z"/>
					</g>
					<g>
						
							<linearGradient id="SVGID_00000023246764716809836480000009022732007610897599_" gradientUnits="userSpaceOnUse" x1="83.2484" y1="166.9747" x2="193.3435" y2="130.4758">
							<stop  offset="0" style="stop-color:#9BC3EA"/>
							<stop  offset="0.1927" style="stop-color:#A2C7EB"/>
							<stop  offset="0.464" style="stop-color:#B4D2EF"/>
							<stop  offset="0.7805" style="stop-color:#D2E5F5"/>
							<stop  offset="1" style="stop-color:#EBF4FA"/>
						</linearGradient>
						<path style="fill:url(#SVGID_00000023246764716809836480000009022732007610897599_);" d="M123.785,149.07
							c0.016-1.376-1.278-2.394-2.614-2.064c-23.61,5.822-32.262,13.357-32.262,21.582v4.37c0-8.339,8.892-15.97,33.255-21.827
							c0.937-0.225,1.61-1.053,1.621-2.017C123.785,149.1,123.785,149.085,123.785,149.07z"/>
					</g>
				</g>
				<path style="fill:#9BC3EA;" d="M108.095,137.207v70.517c-12.099-6.053-19.186-13.391-19.186-21.3v-70.517
					C88.91,123.808,95.997,131.146,108.095,137.207z"/>
			</g>
		</g>
		<g>
			<g>
				
					<ellipse transform="matrix(0.4375 -0.8992 0.8992 0.4375 5.8411 277.8612)" style="fill:#345870;" cx="225.027" cy="134.262" rx="11.138" ry="11.138"/>
				<path style="fill:#345870;" d="M211.611,138.291c1.77,5.891-1.572,12.102-7.463,13.871c-5.891,1.77-12.102-1.572-13.872-7.464
					c-1.769-5.891,1.572-12.102,7.464-13.872C203.632,129.058,209.842,132.399,211.611,138.291z"/>
				<path style="fill:#345870;" d="M235.5,103.902l-58.884,17.686c-6.507,1.954-10.197,8.813-8.243,15.32l1.821,6.063
					c2.033,6.767,9.166,10.605,15.933,8.573l57.941-17.403c6.767-2.033,10.605-9.166,8.573-15.933l-1.821-6.063
					C248.866,105.638,242.007,101.948,235.5,103.902z"/>
				<path style="fill:#69A0E1;" d="M234.635,99.298l-59.835,17.971c-6.244,1.875-9.786,8.458-7.91,14.702l1.713,5.704
					c1.876,6.244,8.458,9.786,14.702,7.91l59.835-17.971c6.244-1.875,9.786-8.458,7.91-14.702l-1.713-5.704
					C247.462,100.965,240.88,97.423,234.635,99.298z"/>
				<g>
					<path style="fill:#5186C7;" d="M208.543,135.982c1.301,4.33-1.155,8.895-5.485,10.195c-4.33,1.301-8.895-1.155-10.195-5.485
						c-1.301-4.33,1.155-8.895,5.485-10.195C202.678,129.195,207.242,131.651,208.543,135.982z"/>
					<path style="fill:#5186C7;" d="M230.992,129.239c1.3,4.33-1.155,8.895-5.486,10.195c-4.33,1.301-8.895-1.155-10.195-5.485
						c-1.3-4.33,1.155-8.895,5.486-10.195C225.127,122.453,229.692,124.909,230.992,129.239z"/>
					<g>
						<path style="fill:#FFFFFF;" d="M228.197,129.679c0.827,2.754-0.735,5.658-3.489,6.485c-2.754,0.827-5.658-0.735-6.485-3.489
							c-0.827-2.754,0.735-5.658,3.489-6.485C224.466,125.362,227.37,126.924,228.197,129.679z"/>
					</g>
					<g>
						<path style="fill:#FFFFFF;" d="M205.806,136.404c0.827,2.754-0.735,5.658-3.489,6.485c-2.754,0.827-5.658-0.735-6.485-3.489
							c-0.827-2.754,0.735-5.658,3.489-6.485C202.075,132.087,204.979,133.649,205.806,136.404z"/>
					</g>
				</g>
				<path style="fill:#5186C7;" d="M193.172,132.214c-0.907,6.222-6.687,10.531-12.909,9.624
					c-6.222-0.907-10.531-6.687-9.624-12.909c0.907-6.222,6.686-10.531,12.909-9.624
					C189.77,120.212,194.079,125.991,193.172,132.214z"/>
				<path style="fill:#5186C7;" d="M247.471,115.905c-0.907,6.222-6.687,10.531-12.909,9.624
					c-6.222-0.907-10.531-6.687-9.624-12.909c0.907-6.222,6.686-10.531,12.909-9.624
					C244.069,103.903,248.378,109.683,247.471,115.905z"/>
				<g>
					<g>
						<path style="fill:#345870;" d="M220.176,122.139l-21.242,6.38c-1.483,0.445-3.047-0.396-3.493-1.879l-3.656-12.173
							c-0.445-1.483,0.396-3.047,1.879-3.493l21.242-6.38c1.483-0.445,3.047,0.396,3.493,1.879l3.656,12.173
							C222.501,120.13,221.66,121.693,220.176,122.139z"/>
						<path style="fill:#5186C7;" d="M219.29,120.048l-20.768,6.238c-1.614,0.485-3.316-0.431-3.801-2.045l-3.399-11.317
							c-0.485-1.614,0.431-3.316,2.045-3.801l20.768-6.238c1.614-0.485,3.316,0.431,3.801,2.045l3.399,11.317
							C221.82,117.861,220.904,119.563,219.29,120.048z"/>
						<path style="fill:#D9DADE;" d="M214.979,106.91l2.579,8.585c0.345,1.148-0.305,2.362-1.457,2.708l-15.709,4.718
							c-0.369,0.111-0.746,0.117-1.101,0.035c-0.737-0.162-1.374-0.713-1.607-1.492l-2.579-8.585
							c-0.193-0.641,0.171-1.316,0.812-1.509l17.553-5.272C214.111,105.905,214.787,106.269,214.979,106.91z"/>
					</g>
					<polygon style="fill:#FFFFFF;" points="211.925,106.562 208.304,120.545 200.779,122.805 204.4,108.822 					"/>
					<path style="fill:#FFFFFF;" d="M202.829,109.294l-3.538,13.662c-0.737-0.162-1.374-0.713-1.607-1.492l-1.048-3.489l1.912-7.396
						L202.829,109.294z"/>
					<polygon style="fill:#FFFFFF;" points="215.268,107.872 216.489,111.935 214.761,118.605 212.301,119.345 					"/>
				</g>
				<g>
					
						<linearGradient id="SVGID_00000087410468255735818480000009288542834999635330_" gradientUnits="userSpaceOnUse" x1="219.8049" y1="147.3844" x2="201.7164" y2="153.4449" gradientTransform="matrix(0.9577 -0.2877 0.2877 0.9577 -34.4887 42.6305)">
						<stop  offset="0" style="stop-color:#1C0035"/>
						<stop  offset="1" style="stop-color:#46008D"/>
					</linearGradient>
					<path style="fill:url(#SVGID_00000087410468255735818480000009288542834999635330_);" d="M207.355,128.667
						c0.125,0.415-0.111,0.852-0.525,0.977c-0.415,0.125-0.852-0.111-0.977-0.525c-0.125-0.415,0.111-0.852,0.525-0.977
						C206.793,128.017,207.23,128.252,207.355,128.667z"/>
					
						<linearGradient id="SVGID_00000089563371404907225830000014354619118613476263_" gradientUnits="userSpaceOnUse" x1="220.6122" y1="149.7945" x2="202.5238" y2="155.855" gradientTransform="matrix(0.9577 -0.2877 0.2877 0.9577 -34.4887 42.6305)">
						<stop  offset="0" style="stop-color:#1C0035"/>
						<stop  offset="1" style="stop-color:#46008D"/>
					</linearGradient>
					<path style="fill:url(#SVGID_00000089563371404907225830000014354619118613476263_);" d="M209.306,130.4
						c0.125,0.415-0.111,0.852-0.525,0.977c-0.415,0.125-0.852-0.111-0.977-0.525c-0.125-0.415,0.111-0.852,0.525-0.976
						C208.744,129.751,209.181,129.986,209.306,130.4z"/>
					
						<linearGradient id="SVGID_00000117671897858920481730000017823649188556315798_" gradientUnits="userSpaceOnUse" x1="220.0822" y1="148.2123" x2="201.9938" y2="154.2728" gradientTransform="matrix(0.9577 -0.2877 0.2877 0.9577 -34.4887 42.6305)">
						<stop  offset="0" style="stop-color:#1C0035"/>
						<stop  offset="1" style="stop-color:#46008D"/>
					</linearGradient>
					<path style="fill:url(#SVGID_00000117671897858920481730000017823649188556315798_);" d="M209.987,127.876
						c0.125,0.415-0.111,0.852-0.525,0.977c-0.415,0.125-0.852-0.111-0.977-0.525c-0.125-0.415,0.111-0.852,0.525-0.977
						C209.425,127.226,209.862,127.462,209.987,127.876z"/>
					
						<linearGradient id="SVGID_00000120538432370457998730000017627966891508114877_" gradientUnits="userSpaceOnUse" x1="220.8895" y1="150.6224" x2="202.8012" y2="156.6829" gradientTransform="matrix(0.9577 -0.2877 0.2877 0.9577 -34.4887 42.6305)">
						<stop  offset="0" style="stop-color:#1C0035"/>
						<stop  offset="1" style="stop-color:#46008D"/>
					</linearGradient>
					<path style="fill:url(#SVGID_00000120538432370457998730000017627966891508114877_);" d="M211.937,129.61
						c0.125,0.415-0.111,0.852-0.525,0.976c-0.415,0.125-0.852-0.111-0.976-0.525c-0.125-0.415,0.111-0.852,0.525-0.977
						C211.376,128.96,211.813,129.195,211.937,129.61z"/>
					
						<linearGradient id="SVGID_00000095325683171485651070000005870929147319487106_" gradientUnits="userSpaceOnUse" x1="220.3598" y1="149.0401" x2="202.271" y2="155.1008" gradientTransform="matrix(0.9577 -0.2877 0.2877 0.9577 -34.4887 42.6305)">
						<stop  offset="0" style="stop-color:#1C0035"/>
						<stop  offset="1" style="stop-color:#46008D"/>
					</linearGradient>
					<path style="fill:url(#SVGID_00000095325683171485651070000005870929147319487106_);" d="M212.618,127.086
						c0.125,0.415-0.111,0.852-0.525,0.977c-0.415,0.124-0.852-0.111-0.977-0.526c-0.124-0.415,0.111-0.852,0.525-0.976
						C212.057,126.436,212.494,126.671,212.618,127.086z"/>
					
						<linearGradient id="SVGID_00000006677326913518639310000001338662769770777753_" gradientUnits="userSpaceOnUse" x1="221.1671" y1="151.4503" x2="203.0784" y2="157.5109" gradientTransform="matrix(0.9577 -0.2877 0.2877 0.9577 -34.4887 42.6305)">
						<stop  offset="0" style="stop-color:#1C0035"/>
						<stop  offset="1" style="stop-color:#46008D"/>
					</linearGradient>
					<path style="fill:url(#SVGID_00000006677326913518639310000001338662769770777753_);" d="M214.569,128.82
						c0.125,0.415-0.111,0.852-0.525,0.977c-0.415,0.124-0.852-0.111-0.976-0.525c-0.125-0.415,0.111-0.852,0.525-0.977
						C214.007,128.17,214.444,128.405,214.569,128.82z"/>
					
						<linearGradient id="SVGID_00000125568694754023476280000011553284487068798118_" gradientUnits="userSpaceOnUse" x1="220.6371" y1="149.8681" x2="202.5485" y2="155.9287" gradientTransform="matrix(0.9577 -0.2877 0.2877 0.9577 -34.4887 42.6305)">
						<stop  offset="0" style="stop-color:#1C0035"/>
						<stop  offset="1" style="stop-color:#46008D"/>
					</linearGradient>
					<path style="fill:url(#SVGID_00000125568694754023476280000011553284487068798118_);" d="M215.25,126.295
						c0.124,0.415-0.111,0.852-0.525,0.976c-0.415,0.125-0.852-0.111-0.977-0.525c-0.125-0.415,0.111-0.852,0.525-0.977
						C214.688,125.645,215.126,125.881,215.25,126.295z"/>
				</g>
				<g>
					<g>
						<g>
							<path style="fill:#FFFFFF;" d="M182.74,126.433l-1.106,1.345c-0.153,0.186-0.384,0.255-0.614,0.184l-1.664-0.513
								c-0.252-0.077-0.464-0.311-0.553-0.607l-0.724-2.409c-0.133-0.445,0.048-0.892,0.405-0.999l2.77-0.832
								c0.357-0.107,0.755,0.166,0.889,0.611l0.723,2.409C182.956,125.919,182.908,126.23,182.74,126.433z"/>
						</g>
						<g>
							<path style="fill:#FFFFFF;" d="M181.187,133.543l1.106-1.345c0.153-0.186,0.383-0.255,0.614-0.184l1.664,0.513
								c0.252,0.078,0.464,0.311,0.553,0.607l0.724,2.409c0.134,0.445-0.048,0.892-0.405,0.999l-2.77,0.832
								c-0.357,0.107-0.755-0.166-0.889-0.611l-0.724-2.409C180.971,134.058,181.02,133.747,181.187,133.543z"/>
						</g>
					</g>
					<g>
						<g>
							<path style="fill:#FFFFFF;" d="M178.008,129.815l1.281,0.894c0.177,0.124,0.236,0.319,0.156,0.52l-0.576,1.452
								c-0.087,0.219-0.326,0.412-0.622,0.501l-2.409,0.724c-0.445,0.133-0.879-0.004-0.97-0.306l-0.704-2.346
								c-0.091-0.303,0.196-0.656,0.641-0.79l2.409-0.723C177.509,129.651,177.814,129.68,178.008,129.815z"/>
						</g>
						<g>
							<path style="fill:#FFFFFF;" d="M186.029,130.529l-1.281-0.894c-0.177-0.124-0.236-0.319-0.156-0.52l0.576-1.452
								c0.087-0.22,0.326-0.412,0.622-0.501l2.409-0.724c0.445-0.133,0.879,0.003,0.97,0.306l0.704,2.346
								c0.091,0.303-0.196,0.656-0.641,0.79l-2.409,0.724C186.529,130.693,186.223,130.665,186.029,130.529z"/>
						</g>
					</g>
				</g>
				<g>
					<g>
						<path style="fill:#210042;" d="M189.231,119.306L189.231,119.306c-0.797,0.24-1.638-0.213-1.877-1.01l-0.295-0.981
							c-0.24-0.797,0.213-1.638,1.01-1.877l0,0c0.797-0.24,1.638,0.213,1.877,1.01l0.294,0.981
							C190.481,118.226,190.028,119.067,189.231,119.306z"/>
						<g>
							<path style="fill:#FFFFFF;" d="M189.947,116.448c0.239,0.797-0.213,1.638-1.01,1.877c-0.797,0.24-1.638-0.213-1.877-1.01
								c-0.24-0.797,0.213-1.638,1.01-1.877C188.867,115.199,189.707,115.651,189.947,116.448z"/>
						</g>
					</g>
					<g>
						<path style="fill:#210042;" d="M223.715,108.949L223.715,108.949c-0.797,0.24-1.638-0.213-1.877-1.01l-0.295-0.981
							c-0.239-0.797,0.213-1.638,1.01-1.877l0,0c0.797-0.24,1.638,0.213,1.877,1.01l0.295,0.981
							C224.965,107.869,224.513,108.709,223.715,108.949z"/>
						<g>
							<path style="fill:#FFFFFF;" d="M224.431,106.091c0.239,0.797-0.213,1.638-1.01,1.877c-0.797,0.24-1.638-0.213-1.877-1.01
								c-0.239-0.797,0.213-1.638,1.01-1.877C223.351,104.841,224.191,105.293,224.431,106.091z"/>
						</g>
					</g>
				</g>
				<g>
					<g>
						<g>
							<circle style="fill:#FFFFFF;" cx="234.475" cy="108.505" r="2.734"/>
						</g>
						<g>
							
								<ellipse transform="matrix(0.4706 -0.8824 0.8824 0.4706 20.0667 273.4852)" style="fill:#FFFFFF;" cx="237.934" cy="120.021" rx="2.734" ry="2.734"/>
						</g>
					</g>
					<g>
						<g>
							<path style="fill:#FFFFFF;" d="M233.065,115.206c0.434,1.446-0.386,2.971-1.832,3.405c-1.446,0.434-2.971-0.386-3.405-1.832
								c-0.434-1.446,0.386-2.971,1.832-3.405C231.106,112.939,232.631,113.759,233.065,115.206z"/>
						</g>
						<g>
							<path style="fill:#FFFFFF;" d="M244.581,111.747c0.434,1.446-0.386,2.971-1.832,3.405c-1.446,0.434-2.971-0.386-3.405-1.832
								c-0.434-1.446,0.386-2.971,1.832-3.405C242.622,109.48,244.146,110.301,244.581,111.747z"/>
						</g>
					</g>
					
						<rect x="229.474" y="115.019" transform="matrix(0.9577 -0.2876 0.2876 0.9577 -23.6247 71.1862)" style="fill:#69A0E1;" width="1.945" height="1.945"/>
					
						<rect x="233.502" y="107.532" transform="matrix(0.9577 -0.2876 0.2876 0.9577 -21.301 72.0288)" style="fill:#E47272;" width="1.946" height="1.946"/>
					
						<rect x="236.978" y="119.104" transform="matrix(0.9577 -0.2876 0.2876 0.9577 -24.4827 73.5175)" style="fill:#E05C5C;" width="1.946" height="1.945"/>
					
						<rect x="241.006" y="111.617" transform="matrix(0.9577 -0.2876 0.2876 0.9577 -22.1594 74.3637)" style="fill:#5186C7;" width="1.945" height="1.946"/>
				</g>
			</g>
			<path style="fill:#345870;" d="M247.291,111.655c-1.391-3.8-4.77-6.737-9.054-7.36c-6.221-0.907-12.001,3.403-12.91,9.626
				c-0.214,1.458-0.139,2.895,0.18,4.248c-0.629-1.717-0.854-3.611-0.57-5.548c0.909-6.225,6.689-10.532,12.91-9.626
				C242.607,103.69,246.25,107.238,247.291,111.655z"/>
			<path style="fill:#345870;" d="M192.992,127.964c-1.391-3.8-4.769-6.737-9.054-7.36c-6.221-0.907-12.001,3.403-12.91,9.626
				c-0.214,1.458-0.139,2.895,0.18,4.248c-0.629-1.717-0.854-3.611-0.57-5.548c0.909-6.225,6.689-10.532,12.91-9.626
				C188.308,119.998,191.951,123.547,192.992,127.964z"/>
		</g>
		<g>
			<g>
				<g>
					<g>
						<g>
							<g>
								<path style="fill:#F5F9FD;" d="M203.212,197.126v46.553c0,2.867-1.846,5.587-4.158,6.081l-71.453,15.292
									c-3.742,0.801-6.837-1.57-6.837-5.311v-60.746c0-3.741,3.094-6.785,6.837-6.798l71.453-0.248
									C201.366,191.941,203.212,194.259,203.212,197.126z"/>
							</g>
						</g>
						<path style="fill:#69A0E1;" d="M203.212,197.126v0.646l-82.448,2.066v-0.843c0-3.741,3.094-6.785,6.837-6.798l71.453-0.248
							C201.366,191.941,203.212,194.259,203.212,197.126z"/>
						<g>
							<path style="fill:#FFFFFF;" d="M131.562,195.875c0,1.103-0.894,2.015-2.004,2.037c-1.117,0.023-2.028-0.864-2.028-1.98
								c0-1.116,0.911-2.028,2.028-2.038C130.668,193.886,131.562,194.772,131.562,195.875z"/>
							<path style="fill:#FFFFFF;" d="M138.422,195.777c0,1.081-0.859,1.974-1.924,1.996c-1.072,0.021-1.946-0.847-1.946-1.94
								c0-1.093,0.874-1.987,1.946-1.996C137.563,193.828,138.422,194.697,138.422,195.777z"/>
							<path style="fill:#FFFFFF;" d="M145.012,195.683c0,1.06-0.825,1.935-1.849,1.956c-1.03,0.021-1.87-0.831-1.87-1.903
								c0-1.072,0.84-1.947,1.87-1.956C144.187,193.772,145.012,194.624,145.012,195.683z"/>
						</g>
					</g>
					<path style="fill:#E47272;" d="M162.742,214.038l12.654,6.666c1.186,0.625,1.186,2.582,0,3.457l-12.654,9.334
						c-1.245,0.918-2.775,0.132-2.775-1.439v-15.995C159.967,214.491,161.497,213.383,162.742,214.038z"/>
				</g>
				<g>
					<g>
						<path style="fill:#69A0E1;" d="M198.748,249.826l-70.661,15.122c-4.006,0.857-7.323-1.686-7.323-5.699v-5.171l82.448-14.739
							v3.963C203.212,246.378,201.231,249.295,198.748,249.826z"/>
						<g>
							<g>
								<path style="fill:#E47272;" d="M174.927,250.289c0.008-0.564-0.01-1.13-0.047-1.694l-37.681,7.4
									c-0.571,0.112-0.943,0.667-0.831,1.238c0.099,0.502,0.54,0.851,1.033,0.851c0.067,0,0.135-0.006,0.204-0.02l37.308-7.327
									C174.917,250.588,174.925,250.438,174.927,250.289z"/>
								<path style="fill:#FFFFFD;" d="M199.014,243.855l-22.705,4.459c0.086,0.584,0.146,1.172,0.199,1.76
									c0.01,0.115,0.015,0.23,0.024,0.345l22.889-4.495c0.571-0.112,0.943-0.667,0.831-1.238
									C200.139,244.115,199.586,243.745,199.014,243.855z"/>
							</g>
							<g>
								<path style="fill:#E47272;" d="M127.195,260.088c-0.493,0-0.935-0.348-1.034-0.851c-0.112-0.571,0.26-1.126,0.831-1.238
									l18.912-3.715c0.572-0.113,1.126,0.26,1.238,0.831c0.112,0.571-0.26,1.126-0.831,1.238l-18.912,3.715
									C127.331,260.082,127.263,260.088,127.195,260.088z"/>
							</g>
							<path style="fill:#E47272;" d="M178.333,248.957c0,2.071-1.594,4.082-3.582,4.495c-2.012,0.419-3.662-0.955-3.662-3.072
								c0-2.117,1.65-4.139,3.662-4.511C176.739,245.501,178.333,246.886,178.333,248.957z"/>
						</g>
						<path style="fill:#FFFFFD;" d="M176.525,249.312c0,1.026-0.792,2.018-1.774,2.216c-0.988,0.2-1.794-0.478-1.794-1.515
							s0.805-2.032,1.794-2.22C175.733,247.605,176.525,248.286,176.525,249.312z"/>
					</g>
				</g>
			</g>
		</g>
		<g>
			
				<linearGradient id="SVGID_00000060749648117999246850000004759773145529827735_" gradientUnits="userSpaceOnUse" x1="95.5973" y1="230.3823" x2="130.8052" y2="246.1683">
				<stop  offset="0" style="stop-color:#9BC3EA"/>
				<stop  offset="0.1927" style="stop-color:#A2C7EB"/>
				<stop  offset="0.464" style="stop-color:#B4D2EF"/>
				<stop  offset="0.7805" style="stop-color:#D2E5F5"/>
				<stop  offset="1" style="stop-color:#EBF4FA"/>
			</linearGradient>
			<path style="opacity:0.4;fill:url(#SVGID_00000060749648117999246850000004759773145529827735_);" d="M95.15,235.521
				c0.001,0.016,0.001,0.039,0.01,0.063l0.801,26.697c-0.241-8.039,12.755-15.738,34.123-21.772l-0.803-26.76
				C107.905,219.784,94.909,227.482,95.15,235.521z"/>
			<g>
				
					<linearGradient id="SVGID_00000155850862652422803540000014584230560227988147_" gradientUnits="userSpaceOnUse" x1="90.5467" y1="233.8913" x2="121.1265" y2="235.6595">
					<stop  offset="0" style="stop-color:#9BC3EA"/>
					<stop  offset="0.1927" style="stop-color:#A2C7EB"/>
					<stop  offset="0.464" style="stop-color:#B4D2EF"/>
					<stop  offset="0.7805" style="stop-color:#D2E5F5"/>
					<stop  offset="1" style="stop-color:#EBF4FA"/>
				</linearGradient>
				<path style="opacity:0.4;fill:url(#SVGID_00000155850862652422803540000014584230560227988147_);" d="M120.777,225.15
					c-13.924,4.73-23.002,10.255-25.334,16.057c0.045,1.199,0.083,2.4,0.112,3.601c2.595-5.858,12.038-11.425,26.394-16.161
					c0.778-0.257,1.301-0.991,1.276-1.809v0C123.186,225.596,121.953,224.751,120.777,225.15z"/>
				
					<linearGradient id="SVGID_00000150807709064121240440000011031834377706696360_" gradientUnits="userSpaceOnUse" x1="90.1372" y1="240.9724" x2="120.7169" y2="242.7406">
					<stop  offset="0" style="stop-color:#9BC3EA"/>
					<stop  offset="0.1927" style="stop-color:#A2C7EB"/>
					<stop  offset="0.464" style="stop-color:#B4D2EF"/>
					<stop  offset="0.7805" style="stop-color:#D2E5F5"/>
					<stop  offset="1" style="stop-color:#EBF4FA"/>
				</linearGradient>
				<path style="opacity:0.4;fill:url(#SVGID_00000150807709064121240440000011031834377706696360_);" d="M120.778,232.368
					c-13.59,4.617-22.546,9.993-25.136,15.643c0.007,1.265,0.006,2.529,0.003,3.793c2.733-5.777,12.128-11.262,26.303-15.939
					c0.777-0.256,1.303-0.99,1.277-1.808v-0.002C123.186,232.815,121.953,231.969,120.778,232.368z"/>
			</g>
			<path style="fill:#9BC3EA;" d="M95.112,234.169l0.803,26.763c0.41,13.67,39.027,24.065,91.558,26.159l-0.804-26.769
				C134.14,258.234,95.523,247.839,95.112,234.169z"/>
		</g>
		<g>
			<g>
				<path style="fill:#CFE1EF;" d="M271.435,158.369c-1.96,0-3.828-0.706-5.309-2.015l2.794-3.158
					c0.763,0.675,1.734,1.019,2.759,0.949c1.016-0.062,1.948-0.516,2.622-1.279c0.675-0.763,1.012-1.742,0.95-2.759
					c-0.063-1.016-0.517-1.947-1.279-2.622l2.794-3.158c1.606,1.421,2.563,3.382,2.694,5.522c0.132,2.141-0.579,4.204-2,5.81
					c-1.421,1.606-3.382,2.563-5.523,2.694C271.769,158.364,271.602,158.369,271.435,158.369z"/>
			</g>
			<g>
				<path style="fill:#E6BC7A;" d="M445.074,158.426c-1.049,0-2.097-0.208-3.094-0.625c-1.978-0.827-3.517-2.374-4.332-4.358
					c-0.814-1.983-0.808-4.165,0.019-6.144c0.827-1.978,2.375-3.517,4.358-4.332l1.602,3.9c-0.942,0.387-1.677,1.117-2.069,2.057
					c-0.392,0.939-0.395,1.976-0.009,2.918c0.387,0.942,1.118,1.677,2.057,2.07c0.94,0.393,1.975,0.394,2.917,0.009l1.602,3.9
					C447.14,158.224,446.107,158.426,445.074,158.426z"/>
			</g>
			<g>
				<path style="fill:#E6BC7A;" d="M143.13,67.699c-1.049,0-2.098-0.208-3.095-0.625c-1.979-0.827-3.517-2.374-4.332-4.358
					c-1.681-4.096,0.283-8.796,4.377-10.477l1.602,3.9c-1.944,0.798-2.877,3.03-2.079,4.975c0.799,1.944,3.029,2.876,4.974,2.078
					l1.602,3.9C145.195,67.497,144.162,67.699,143.13,67.699z"/>
			</g>
			<g>
				<path style="fill:#CFE1EF;" d="M28.632,189.286c-2.149,0-4.292-0.854-5.871-2.545l3.082-2.878
					c1.434,1.535,3.85,1.619,5.388,0.185c1.536-1.434,1.619-3.851,0.184-5.387l3.082-2.878c3.021,3.235,2.847,8.326-0.389,11.347
					C32.564,188.572,30.596,189.286,28.632,189.286z"/>
			</g>
		</g>
		<g>
			<path style="fill:#FFFFFF;" d="M165.566,171.363c-4.717,0-4.719,7.321,0,7.321C170.284,178.684,170.286,171.363,165.566,171.363z
				"/>
			<path style="fill:#FFFFFF;" d="M436,110.596c-4.717,0-4.719,7.321,0,7.321C440.718,117.917,440.72,110.596,436,110.596z"/>
			<path style="fill:#FFFFFF;" d="M346.272,281.895c-4.717,0-4.719,7.321,0,7.321C350.99,289.216,350.992,281.895,346.272,281.895z"
				/>
			<path style="fill:#FFFFFF;" d="M84.856,84.182c-4.717,0-4.719,7.321,0,7.321C89.573,91.503,89.575,84.182,84.856,84.182z"/>
			<path style="fill:#FFFFFF;" d="M250.329,42.635c-2.696,0-2.697,4.183,0,4.183C253.024,46.818,253.026,42.635,250.329,42.635z"/>
			<path style="fill:#FFFFFF;" d="M232.072,171.207c-2.696,0-2.697,4.183,0,4.183C234.768,175.39,234.769,171.207,232.072,171.207z"
				/>
			<path style="fill:#FFFFFF;" d="M315.586,154.115c-2.696,0-2.697,4.183,0,4.183C318.281,158.299,318.283,154.115,315.586,154.115z
				"/>
			<path style="fill:#FFFFFF;" d="M335.007,94.685c-2.696,0-2.697,4.183,0,4.183C337.703,98.868,337.704,94.685,335.007,94.685z"/>
			<path style="fill:#FFFFFF;" d="M403.76,48.461c-2.696,0-2.697,4.183,0,4.183C406.456,52.645,406.457,48.461,403.76,48.461z"/>
			<path style="fill:#FFFFFF;" d="M389.388,216.265c-2.696,0-2.697,4.184,0,4.184C392.084,220.448,392.085,216.265,389.388,216.265z
				"/>
			<path style="fill:#FFFFFF;" d="M310.148,231.025c-2.696,0-2.697,4.183,0,4.183C312.843,235.209,312.844,231.025,310.148,231.025z
				"/>
			<path style="fill:#FFFFFF;" d="M180.411,297.448c-2.696,0-2.697,4.183,0,4.183C183.106,301.631,183.107,297.448,180.411,297.448z
				"/>
			<path style="fill:#FFFFFF;" d="M89.517,212.769c-2.696,0-2.697,4.183,0,4.183C92.213,216.952,92.214,212.769,89.517,212.769z"/>
			<path style="fill:#FFFFFF;" d="M36.301,138.967c-2.696,0-2.697,4.183,0,4.183C38.997,143.15,38.998,138.967,36.301,138.967z"/>
			<path style="fill:#FFFFFF;" d="M171.477,61.28c-2.696,0-2.697,4.183,0,4.183C174.172,65.463,174.173,61.28,171.477,61.28z"/>
			<path style="fill:#FFFFFF;" d="M435.612,180.917c-2.696,0-2.697,4.183,0,4.183C438.308,185.101,438.309,180.917,435.612,180.917z
				"/>
		</g>
	</g>
</g>
</svg>
