<?xml version="1.0" standalone="no"?>
<svg xmlns:xlink="http://www.w3.org/1999/xlink" id="wave" style="transform:rotate(180deg); transition: 0.3s" viewBox="0 0 1440 490" version="1.1" xmlns="http://www.w3.org/2000/svg"><defs><linearGradient id="sw-gradient-0" x1="0" x2="0" y1="1" y2="0"><stop stop-color="rgba(223, 223, 255, 1)" offset="0%"/><stop stop-color="rgba(223, 223, 255, 1)" offset="100%"/></linearGradient></defs><path style="transform:translate(0, 0px); opacity:1" fill="url(#sw-gradient-0)" d="M0,196L80,212.3C160,229,320,261,480,253.2C640,245,800,196,960,179.7C1120,163,1280,180,1440,212.3C1600,245,1760,294,1920,277.7C2080,261,2240,180,2400,171.5C2560,163,2720,229,2880,220.5C3040,212,3200,131,3360,147C3520,163,3680,278,3840,294C4000,310,4160,229,4320,171.5C4480,114,4640,82,4800,73.5C4960,65,5120,82,5280,114.3C5440,147,5600,196,5760,196C5920,196,6080,147,6240,179.7C6400,212,6560,327,6720,351.2C6880,376,7040,310,7200,285.8C7360,261,7520,278,7680,236.8C7840,196,8000,98,8160,89.8C8320,82,8480,163,8640,187.8C8800,212,8960,180,9120,204.2C9280,229,9440,310,9600,310.3C9760,310,9920,229,10080,204.2C10240,180,10400,212,10560,228.7C10720,245,10880,245,11040,277.7C11200,310,11360,376,11440,408.3L11520,441L11520,490L11440,490C11360,490,11200,490,11040,490C10880,490,10720,490,10560,490C10400,490,10240,490,10080,490C9920,490,9760,490,9600,490C9440,490,9280,490,9120,490C8960,490,8800,490,8640,490C8480,490,8320,490,8160,490C8000,490,7840,490,7680,490C7520,490,7360,490,7200,490C7040,490,6880,490,6720,490C6560,490,6400,490,6240,490C6080,490,5920,490,5760,490C5600,490,5440,490,5280,490C5120,490,4960,490,4800,490C4640,490,4480,490,4320,490C4160,490,4000,490,3840,490C3680,490,3520,490,3360,490C3200,490,3040,490,2880,490C2720,490,2560,490,2400,490C2240,490,2080,490,1920,490C1760,490,1600,490,1440,490C1280,490,1120,490,960,490C800,490,640,490,480,490C320,490,160,490,80,490L0,490Z"/></svg>