<?xml version="1.0" standalone="no"?>
<svg xmlns:xlink="http://www.w3.org/1999/xlink" id="wave" style="transform:rotate(0deg); transition: 0.3s" viewBox="0 0 1440 420" version="1.1" xmlns="http://www.w3.org/2000/svg"><defs><linearGradient id="sw-gradient-0" x1="0" x2="0" y1="1" y2="0"><stop stop-color="rgba(243, 106, 62, 1)" offset="0%"/><stop stop-color="rgba(255, 179, 11, 1)" offset="100%"/></linearGradient></defs><path style="transform:translate(0, 0px); opacity:1" fill="url(#sw-gradient-0)" d="M0,126L60,168C120,210,240,294,360,301C480,308,600,238,720,238C840,238,960,308,1080,294C1200,280,1320,182,1440,140C1560,98,1680,112,1800,119C1920,126,2040,126,2160,140C2280,154,2400,182,2520,217C2640,252,2760,294,2880,322C3000,350,3120,364,3240,343C3360,322,3480,266,3600,266C3720,266,3840,322,3960,287C4080,252,4200,126,4320,105C4440,84,4560,168,4680,175C4800,182,4920,112,5040,133C5160,154,5280,266,5400,259C5520,252,5640,126,5760,105C5880,84,6000,168,6120,224C6240,280,6360,308,6480,322C6600,336,6720,336,6840,322C6960,308,7080,280,7200,273C7320,266,7440,280,7560,252C7680,224,7800,154,7920,119C8040,84,8160,84,8280,119C8400,154,8520,224,8580,259L8640,294L8640,420L8580,420C8520,420,8400,420,8280,420C8160,420,8040,420,7920,420C7800,420,7680,420,7560,420C7440,420,7320,420,7200,420C7080,420,6960,420,6840,420C6720,420,6600,420,6480,420C6360,420,6240,420,6120,420C6000,420,5880,420,5760,420C5640,420,5520,420,5400,420C5280,420,5160,420,5040,420C4920,420,4800,420,4680,420C4560,420,4440,420,4320,420C4200,420,4080,420,3960,420C3840,420,3720,420,3600,420C3480,420,3360,420,3240,420C3120,420,3000,420,2880,420C2760,420,2640,420,2520,420C2400,420,2280,420,2160,420C2040,420,1920,420,1800,420C1680,420,1560,420,1440,420C1320,420,1200,420,1080,420C960,420,840,420,720,420C600,420,480,420,360,420C240,420,120,420,60,420L0,420Z"/><defs><linearGradient id="sw-gradient-1" x1="0" x2="0" y1="1" y2="0"><stop stop-color="rgba(243, 106, 62, 1)" offset="0%"/><stop stop-color="rgba(52.239, 145.572, 145.572, 1)" offset="100%"/></linearGradient></defs><path style="transform:translate(0, 50px); opacity:0.9" fill="url(#sw-gradient-1)" d="M0,252L60,224C120,196,240,140,360,119C480,98,600,112,720,154C840,196,960,266,1080,273C1200,280,1320,224,1440,203C1560,182,1680,196,1800,182C1920,168,2040,126,2160,119C2280,112,2400,140,2520,133C2640,126,2760,84,2880,105C3000,126,3120,210,3240,217C3360,224,3480,154,3600,140C3720,126,3840,168,3960,210C4080,252,4200,294,4320,266C4440,238,4560,140,4680,126C4800,112,4920,182,5040,224C5160,266,5280,280,5400,245C5520,210,5640,126,5760,140C5880,154,6000,266,6120,273C6240,280,6360,182,6480,154C6600,126,6720,168,6840,217C6960,266,7080,322,7200,329C7320,336,7440,294,7560,280C7680,266,7800,280,7920,287C8040,294,8160,294,8280,259C8400,224,8520,154,8580,119L8640,84L8640,420L8580,420C8520,420,8400,420,8280,420C8160,420,8040,420,7920,420C7800,420,7680,420,7560,420C7440,420,7320,420,7200,420C7080,420,6960,420,6840,420C6720,420,6600,420,6480,420C6360,420,6240,420,6120,420C6000,420,5880,420,5760,420C5640,420,5520,420,5400,420C5280,420,5160,420,5040,420C4920,420,4800,420,4680,420C4560,420,4440,420,4320,420C4200,420,4080,420,3960,420C3840,420,3720,420,3600,420C3480,420,3360,420,3240,420C3120,420,3000,420,2880,420C2760,420,2640,420,2520,420C2400,420,2280,420,2160,420C2040,420,1920,420,1800,420C1680,420,1560,420,1440,420C1320,420,1200,420,1080,420C960,420,840,420,720,420C600,420,480,420,360,420C240,420,120,420,60,420L0,420Z"/></svg>