<?xml version="1.0" standalone="no"?>
<svg xmlns:xlink="http://www.w3.org/1999/xlink" id="wave" style="transform:rotate(180deg); transition: 0.3s" viewBox="0 0 1440 310" version="1.1" xmlns="http://www.w3.org/2000/svg"><defs><linearGradient id="sw-gradient-0" x1="0" x2="0" y1="1" y2="0"><stop stop-color="rgba(218.429, 218.429, 218.429, 1)" offset="0%"/><stop stop-color="rgba(222.983, 222.983, 222.983, 1)" offset="100%"/></linearGradient></defs><path style="transform:translate(0, 0px); opacity:1" fill="url(#sw-gradient-0)" d="M0,124L60,108.5C120,93,240,62,360,72.3C480,83,600,134,720,144.7C840,155,960,124,1080,93C1200,62,1320,31,1440,20.7C1560,10,1680,21,1800,51.7C1920,83,2040,134,2160,170.5C2280,207,2400,227,2520,201.5C2640,176,2760,103,2880,87.8C3000,72,3120,114,3240,113.7C3360,114,3480,72,3600,77.5C3720,83,3840,134,3960,170.5C4080,207,4200,227,4320,217C4440,207,4560,165,4680,139.5C4800,114,4920,103,5040,118.8C5160,134,5280,176,5400,186C5520,196,5640,176,5760,144.7C5880,114,6000,72,6120,56.8C6240,41,6360,52,6480,77.5C6600,103,6720,145,6840,149.8C6960,155,7080,124,7200,134.3C7320,145,7440,196,7560,211.8C7680,227,7800,207,7920,175.7C8040,145,8160,103,8280,93C8400,83,8520,103,8580,113.7L8640,124L8640,310L8580,310C8520,310,8400,310,8280,310C8160,310,8040,310,7920,310C7800,310,7680,310,7560,310C7440,310,7320,310,7200,310C7080,310,6960,310,6840,310C6720,310,6600,310,6480,310C6360,310,6240,310,6120,310C6000,310,5880,310,5760,310C5640,310,5520,310,5400,310C5280,310,5160,310,5040,310C4920,310,4800,310,4680,310C4560,310,4440,310,4320,310C4200,310,4080,310,3960,310C3840,310,3720,310,3600,310C3480,310,3360,310,3240,310C3120,310,3000,310,2880,310C2760,310,2640,310,2520,310C2400,310,2280,310,2160,310C2040,310,1920,310,1800,310C1680,310,1560,310,1440,310C1320,310,1200,310,1080,310C960,310,840,310,720,310C600,310,480,310,360,310C240,310,120,310,60,310L0,310Z"/></svg>