<?xml version="1.0" standalone="no"?>
<svg xmlns:xlink="http://www.w3.org/1999/xlink" id="wave" style="transform:rotate(180deg); transition: 0.3s" viewBox="0 0 1440 200" version="1.1" xmlns="http://www.w3.org/2000/svg"><defs><linearGradient id="sw-gradient-0" x1="0" x2="0" y1="1" y2="0"><stop stop-color="rgba(218.429, 218.429, 218.429, 1)" offset="0%"/><stop stop-color="rgba(222.983, 222.983, 222.983, 1)" offset="100%"/></linearGradient></defs><path style="transform:translate(0, 0px); opacity:1" fill="url(#sw-gradient-0)" d="M0,80L60,70C120,60,240,40,360,46.7C480,53,600,87,720,93.3C840,100,960,80,1080,60C1200,40,1320,20,1440,13.3C1560,7,1680,13,1800,33.3C1920,53,2040,87,2160,110C2280,133,2400,147,2520,130C2640,113,2760,67,2880,56.7C3000,47,3120,73,3240,73.3C3360,73,3480,47,3600,50C3720,53,3840,87,3960,110C4080,133,4200,147,4320,140C4440,133,4560,107,4680,90C4800,73,4920,67,5040,76.7C5160,87,5280,113,5400,120C5520,127,5640,113,5760,93.3C5880,73,6000,47,6120,36.7C6240,27,6360,33,6480,50C6600,67,6720,93,6840,96.7C6960,100,7080,80,7200,86.7C7320,93,7440,127,7560,136.7C7680,147,7800,133,7920,113.3C8040,93,8160,67,8280,60C8400,53,8520,67,8580,73.3L8640,80L8640,200L8580,200C8520,200,8400,200,8280,200C8160,200,8040,200,7920,200C7800,200,7680,200,7560,200C7440,200,7320,200,7200,200C7080,200,6960,200,6840,200C6720,200,6600,200,6480,200C6360,200,6240,200,6120,200C6000,200,5880,200,5760,200C5640,200,5520,200,5400,200C5280,200,5160,200,5040,200C4920,200,4800,200,4680,200C4560,200,4440,200,4320,200C4200,200,4080,200,3960,200C3840,200,3720,200,3600,200C3480,200,3360,200,3240,200C3120,200,3000,200,2880,200C2760,200,2640,200,2520,200C2400,200,2280,200,2160,200C2040,200,1920,200,1800,200C1680,200,1560,200,1440,200C1320,200,1200,200,1080,200C960,200,840,200,720,200C600,200,480,200,360,200C240,200,120,200,60,200L0,200Z"/></svg>